M48
; DRILL file {KiCad 9.0.3} date 2025-09-18T23:18:15-0600
; FORMAT={-:-/ absolute / inch / decimal}
; #@! TF.CreationDate,2025-09-18T23:18:15-06:00
; #@! TF.GenerationSoftware,Kicad,Pcbnew,9.0.3
; #@! TF.FileFunction,Plated,1,4,PTH
FMAT,2
INCH
; #@! TA.AperFunction,Plated,PTH,ViaDrill
T1C0.0118
; #@! TA.AperFunction,Plated,PTH,ViaDrill
T2C0.0197
; #@! TA.AperFunction,Plated,PTH,ComponentDrill
T3C0.0295
; #@! TA.AperFunction,Plated,PTH,ComponentDrill
T4C0.0315
; #@! TA.AperFunction,Plated,PTH,ComponentDrill
T5C0.0354
; #@! TA.AperFunction,Plated,PTH,ComponentDrill
T6C0.0374
; #@! TA.AperFunction,Plated,PTH,ViaDrill
T7C0.0394
; #@! TA.AperFunction,Plated,PTH,ComponentDrill
T8C0.0394
; #@! TA.AperFunction,Plated,PTH,ComponentDrill
T9C0.0421
; #@! TA.AperFunction,Plated,PTH,ComponentDrill
T10C0.0433
; #@! TA.AperFunction,Plated,PTH,ComponentDrill
T11C0.0472
; #@! TA.AperFunction,Plated,PTH,ComponentDrill
T12C0.0512
; #@! TA.AperFunction,Plated,PTH,ComponentDrill
T13C0.0598
; #@! TA.AperFunction,Plated,PTH,ComponentDrill
T14C0.0630
; #@! TA.AperFunction,Plated,PTH,ComponentDrill
T15C0.1693
%
G90
G05
T1
X1.428Y-1.354
X1.528Y-2.612
X1.546Y-5.004
X1.56Y-3.824
X1.712Y-1.728
X1.74Y-0.998
X1.792Y-3.188
X1.822Y-2.726
X1.822Y-2.822
X1.822Y-2.922
X1.826Y-2.624
X1.874Y-4.41
X1.932Y-2.006
X2.1Y-4.55
X2.13Y-2.38
X2.19Y-3.588
X2.21Y-4.408
X2.2119Y-1.9199
X2.2126Y-1.9861
X2.2129Y-1.9524
X2.2293Y-2.0128
X2.246Y-3.174
X2.2479Y-2.0382
X2.248Y-3.88
X2.25Y-3.52
X2.264Y-4.856
X2.266Y-2.064
X2.28Y-1.33
X2.28Y-3.468
X2.281Y-2.0923
X2.282Y-3.24
X2.29Y-3.514
X2.296Y-4.754
X2.298Y-3.88
X2.3Y-1.425
X2.3Y-1.625
X2.304Y-2.116
X2.3046Y-3.4483
X2.312Y-5.534
X2.3123Y-3.5962
X2.313Y-4.419
X2.315Y-3.6276
X2.316Y-3.66
X2.3221Y-3.5662
X2.3243Y-2.7342
X2.325Y-1.4
X2.3251Y-3.4244
X2.328Y-2.368
X2.332Y-2.132
X2.332Y-4.872
X2.334Y-4.196
X2.338Y-1.304
X2.338Y-2.9
X2.342Y-1.81
X2.346Y-3.166
X2.348Y-2.41
X2.354Y-2.338
X2.3637Y-4.8297
X2.37Y-5.256
X2.382Y-4.3
X2.4Y-1.225
X2.412Y-4.828
X2.42Y-2.838
X2.4282Y-3.7108
X2.458Y-2.346
X2.475Y-1.575
X2.4791Y-1.2959
X2.484Y-4.648
X2.507Y-1.725
X2.513Y-2.353
X2.518Y-1.862
X2.544Y-1.726
X2.562Y-3.282
X2.564Y-2.728
X2.564Y-3.78
X2.564Y-4.664
X2.566Y-1.66
X2.568Y-2.492
X2.5742Y-3.6316
X2.58Y-4.22
X2.6Y-1.686
X2.6301Y-4.8126
X2.64Y-2.298
X2.662Y-1.604
X2.674Y-2.21
X2.682Y-2.832
X2.694Y-4.462
X2.694Y-4.512
X2.694Y-4.564
X2.6958Y-4.6157
X2.698Y-4.298
X2.704Y-2.648
X2.706Y-1.2
X2.706Y-1.26
X2.7061Y-1.6835
X2.708Y-3.788
X2.708Y-3.988
X2.708Y-4.038
X2.708Y-4.09
X2.708Y-4.142
X2.7129Y-4.5892
X2.716Y-4.538
X2.716Y-4.64
X2.718Y-4.488
X2.72Y-1.002
X2.724Y-4.894
X2.726Y-3.962
X2.728Y-4.116
X2.7282Y-4.0138
X2.73Y-4.064
X2.732Y-1.632
X2.732Y-2.138
X2.7355Y-2.648
X2.736Y-3.764
X2.748Y-5.182
X2.758Y-4.196
X2.76Y-1.794
X2.76Y-2.41
X2.762Y-2.894
X2.762Y-3.464
X2.767Y-2.648
X2.78Y-1.29
X2.782Y-4.232
X2.784Y-2.434
X2.786Y-1.818
X2.786Y-2.922
X2.786Y-3.49
X2.7983Y-2.6417
X2.806Y-3.908
X2.806Y-4.266
X2.8096Y-3.1666
X2.81Y-1.41
X2.81Y-1.606
X2.81Y-5.21
X2.8117Y-1.55
X2.822Y-2.4685
X2.83Y-2.052
X2.832Y-4.7602
X2.834Y-3.668
X2.834Y-3.932
X2.834Y-4.294
X2.848Y-2.618
X2.85Y-4.97
X2.85Y-5.01
X2.85Y-5.05
X2.85Y-5.09
X2.85Y-5.13
X2.85Y-5.17
X2.85Y-5.21
X2.854Y-1.91
X2.886Y-3.55
X2.886Y-4.594
X2.89Y-3.972
X2.9059Y-3.1001
X2.92Y-4.362
X2.925Y-2.975
X2.925Y-3.025
X2.925Y-3.075
X2.932Y-3.125
X2.978Y-2.062
X2.978Y-2.825
X2.996Y-5.8608
X3.002Y-3.15
X3.008Y-2.8486
X3.026Y-1.4
X3.048Y-3.175
X3.07Y-2.632
X3.12Y-1.15
X3.13Y-1.9
X3.182Y-1.6604
X3.202Y-1.948
X3.298Y-1.93
X3.31Y-5.252
X3.312Y-2.912
X3.3216Y-1.9509
X3.322Y-3.628
X3.326Y-5.478
X3.34Y-2.63
X3.356Y-4.228
X3.358Y-4.676
X3.364Y-3.452
X3.3684Y-1.6769
X3.4Y-1.675
X3.4Y-1.978
X3.402Y-2.016
X3.4464Y-1.9565
X3.466Y-1.382
X3.478Y-1.964
X3.55Y-1.8907
X3.562Y-1.588
X3.62Y-1.7
X3.75Y-1.85
X3.86Y-2.906
X3.866Y-3.542
X3.875Y-1.95
X3.89Y-4.444
X3.896Y-3.224
X3.896Y-4.834
X3.904Y-4.028
X3.906Y-3.838
X3.92Y-2.364
X3.922Y-4.754
X3.925Y-1.975
X3.932Y-4.354
X3.945Y-1.857
X3.946Y-3.934
X3.95Y-1.8
X3.95Y-5.076
X4.034Y-5.314
X4.044Y-5.888
X4.214Y-1.736
X4.22Y-5.52
X4.304Y-1.976
X4.3516Y-2.7456
X4.3703Y-5.5523
X4.522Y-1.854
X4.58Y-5.314
X4.662Y-1.122
X4.76Y-5.52
X4.784Y-3.136
X4.79Y-5.152
X4.848Y-1.402
X4.972Y-2.814
X4.98Y-3.444
X4.984Y-5.87
X5.008Y-3.922
X5.022Y-4.712
X5.026Y-4.326
X5.034Y-5.126
X5.05Y-2.338
X5.1836Y-4.34
X5.27Y-4.428
X5.27Y-5.466
X5.328Y-5.284
X5.33Y-4.984
X5.374Y-5.436
X5.428Y-4.202
X5.518Y-1.382
X5.518Y-1.432
X5.53Y-3.428
X5.54Y-3.996
X5.54Y-5.5118
X5.566Y-4.958
X5.5669Y-4.8031
X5.568Y-5.1
X5.568Y-5.252
X5.57Y-4.57
X5.6009Y-4.4471
X5.61Y-2.69
X5.626Y-5.252
X5.63Y-4.406
X5.65Y-4.46
X5.66Y-3.94
X5.664Y-5.88
X5.726Y-3.174
X5.7264Y-3.34
X5.748Y-3.484
X5.75Y-3.58
X5.7504Y-3.387
X5.754Y-3.834
X5.754Y-3.924
X5.756Y-4.488
X5.756Y-4.572
X5.7564Y-3.676
X5.7736Y-3.0447
X5.7797Y-4.542
X5.78Y-4.04
X5.804Y-4.462
X5.84Y-4.03
X5.85Y-4.61
X5.866Y-4.796
X5.8699Y-5.4488
X5.8986Y-2.9313
X5.9Y-4.03
X5.92Y-5.26
X5.9244Y-4.8425
X5.93Y-5.096
X5.9301Y-2.93
X5.936Y-3.24
X5.948Y-4.604
X5.96Y-4.03
X5.9616Y-2.93
X5.9704Y-4.937
X5.986Y-3.734
X5.988Y-5.54
X5.9898Y-2.9161
X5.992Y-3.464
X5.992Y-3.982
X5.994Y-4.624
X5.994Y-5.231
X5.996Y-5.41
X6.0135Y-2.8554
X6.0141Y-2.8868
X6.02Y-4.03
X6.038Y-4.646
X6.04Y-2.916
X6.0564Y-3.928
X6.064Y-5.102
X6.0697Y-2.9264
X6.08Y-4.03
X6.09Y-2.24
X6.106Y-4.34
X6.118Y-4.58
X6.134Y-4.438
X6.14Y-4.03
X6.142Y-1.27
X6.19Y-3.33
X6.1903Y-3.0793
X6.1903Y-3.2043
X6.1903Y-3.4543
X6.1903Y-3.5793
X6.1903Y-3.7043
X6.1903Y-3.8293
X6.22Y-3.242
X6.22Y-3.742
X6.222Y-3.492
X6.2295Y-2.3505
X6.242Y-3.984
X6.26Y-4.03
X6.2865Y-2.5365
X6.32Y-4.03
X6.328Y-5.428
X6.33Y-4.51
X6.332Y-1.864
X6.336Y-5.2717
X6.364Y-0.976
X6.374Y-5.122
X6.386Y-5.268
X6.39Y-4.942
X6.39Y-5.66
X6.396Y-4.814
X6.406Y-5.546
X6.41Y-4.4
X6.41Y-5.388
X6.4213Y-5.052
X6.427Y-2.5957
X6.43Y-3.24
X6.434Y-3.46
X6.434Y-3.586
X6.438Y-3.716
X6.474Y-4.522
X6.4757Y-4.5537
X6.478Y-4.59
X6.49Y-5.72
X6.4936Y-2.6184
X6.4957Y-3.2043
X6.4957Y-3.7043
X6.4957Y-3.8293
X6.4975Y-3.0775
X6.5031Y-2.904
X6.506Y-4.9528
X6.52Y-4.41
X6.5255Y-3.6154
X6.526Y-3.368
X6.526Y-3.492
X6.526Y-3.742
X6.5296Y-4.874
X6.5314Y-4.5314
X6.556Y-2.5876
X6.558Y-4.028
X6.568Y-5.778
X6.584Y-3.116
X6.602Y-2.948
X6.6176Y-4.8224
X6.62Y-4.03
X6.6335Y-2.9485
X6.67Y-4.51
X6.68Y-4.032
X6.7Y-1.722
X6.7015Y-3.866
X6.73Y-3.372
X6.73Y-3.498
X6.736Y-3.116
X6.74Y-4.0316
X6.74Y-4.7
X6.746Y-5.778
X6.764Y-2.396
X6.772Y-3.494
X6.777Y-4.0324
X6.778Y-3.242
X6.792Y-3.368
X6.7944Y-3.828
X6.7957Y-3.0793
X6.7957Y-3.2043
X6.796Y-3.9528
X6.7967Y-3.7053
X6.8Y-5.29
X6.81Y-5.44
X6.8236Y-4.672
X6.828Y-2.947
X6.836Y-3.866
X6.836Y-5.584
X6.838Y-3.618
X6.8504Y-5.685
X6.8557Y-2.9321
X6.859Y-2.5957
X6.8795Y-2.9528
X6.8823Y-5.5823
X6.89Y-4.958
X6.892Y-5.102
X6.898Y-4.816
X6.904Y-3.104
X6.9055Y-2.6535
X6.91Y-2.9321
X6.914Y-5.4376
X6.9248Y-2.7386
X6.938Y-1.188
X6.938Y-1.616
X6.9402Y-2.9596
X6.9436Y-4.604
X6.95Y-0.97
X6.978Y-2.592
X6.978Y-2.946
X6.98Y-0.984
X6.98Y-1.616
X6.99Y-1.188
X7.01Y-2.104
X7.022Y-3.372
X7.026Y-1.62
X7.0437Y-2.948
X7.0496Y-4.574
X7.06Y-4.43
X7.072Y-2.9633
X7.078Y-1.084
X7.086Y-3.866
X7.0868Y-3.0793
X7.0868Y-3.2043
X7.0868Y-3.3293
X7.0868Y-3.4543
X7.0868Y-3.5793
X7.0868Y-3.7043
X7.0868Y-3.8293
X7.091Y-2.9382
X7.096Y-1.496
X7.1Y-4.03
X7.1146Y-2.96
X7.116Y-1.614
X7.124Y-1.304
X7.146Y-1.894
X7.16Y-4.03
X7.19Y-2.404
X7.212Y-1.874
X7.214Y-1.974
X7.22Y-3.838
X7.22Y-4.03
X7.226Y-3.874
X7.228Y-3.496
X7.23Y-2.9739
X7.236Y-3.546
X7.2487Y-3.4173
X7.2618Y-2.9628
X7.2656Y-5.3937
X7.275Y-5.7
X7.28Y-4.03
X7.281Y-2.5957
X7.2836Y-3.122
X7.29Y-1.2815
X7.29Y-5.14
X7.292Y-5.272
X7.2953Y-5.2047
X7.311Y-5.0591
X7.314Y-5.41
X7.328Y-5.538
X7.33Y-4.84
X7.3346Y-2.6457
X7.34Y-4.03
X7.34Y-4.502
X7.37Y-4.548
X7.37Y-4.95
X7.3707Y-4.5807
X7.3778Y-3.0793
X7.3778Y-3.2043
X7.3778Y-3.3293
X7.3778Y-3.4543
X7.3778Y-3.5793
X7.3778Y-3.7043
X7.3778Y-3.7707
X7.3914Y-4.5174
X7.4Y-1.18
X7.4Y-1.31
X7.4Y-4.03
X7.4Y-4.9701
X7.4Y-5.24
X7.408Y-3.368
X7.41Y-2.992
X7.412Y-2.58
X7.4291Y-4.8661
X7.45Y-1.13
X7.45Y-1.34
X7.453Y-2.95
X7.4559Y-4.5199
X7.46Y-4.05
X7.484Y-3.98
X7.488Y-1.748
X7.514Y-4.064
X7.522Y-2.144
X7.524Y-2.502
X7.524Y-3.8162
X7.525Y-5.825
X7.532Y-2.106
X7.536Y-1.872
X7.538Y-1.722
X7.548Y-3.982
X7.552Y-3.838
X7.56Y-1.13
X7.56Y-1.34
X7.58Y-4.05
X7.606Y-4.718
X7.61Y-1.18
X7.61Y-1.31
X7.614Y-1.876
X7.6378Y-1.73
X7.641Y-2.069
X7.65Y-4.618
X7.676Y-1.872
X7.6811Y-5.689
X7.6868Y-3.0793
X7.6868Y-3.2043
X7.6868Y-3.3293
X7.6868Y-3.4543
X7.6868Y-3.5793
X7.6868Y-3.7043
X7.6942Y-3.7707
X7.7Y-4.03
X7.7Y-5.28
X7.7008Y-5.5551
X7.706Y-2.596
X7.708Y-2.944
X7.71Y-2.548
X7.716Y-3.492
X7.716Y-3.616
X7.718Y-2.102
X7.718Y-2.992
X7.718Y-3.368
X7.724Y-3.742
X7.73Y-2.512
X7.7378Y-1.718
X7.7395Y-2.944
X7.7565Y-0.9815
X7.76Y-4.03
X7.7717Y-2.6535
X7.772Y-2.944
X7.775Y-4.8
X7.775Y-4.95
X7.775Y-5.1
X7.788Y-1.724
X7.796Y-1.868
X7.7963Y-4.6821
X7.8035Y-2.944
X7.8056Y-2.655
X7.814Y-3.626
X7.82Y-4.03
X7.8228Y-5.3819
X7.842Y-2.142
X7.864Y-1.732
X7.8665Y-2.944
X7.878Y-2.152
X7.88Y-4.03
X7.898Y-2.944
X7.9036Y-4.604
X7.904Y-2.122
X7.924Y-2.386
X7.93Y-2.944
X7.94Y-4.03
X7.9625Y-1.1375
X7.98Y-2.932
X7.984Y-1.328
X7.984Y-1.382
X7.9897Y-4.5957
X7.996Y-1.856
X8.0Y-1.575
X8.0Y-4.03
X8.002Y-1.286
X8.0075Y-1.0825
X8.016Y-1.69
X8.022Y-2.378
X8.042Y-1.358
X8.06Y-4.036
X8.07Y-2.548
X8.1Y-1.714
X8.12Y-1.776
X8.146Y-2.37
X8.166Y-3.048
X8.168Y-5.402
X8.172Y-3.11
X8.172Y-3.226
X8.172Y-3.294
X8.172Y-3.364
X8.1736Y-5.5036
X8.174Y-3.426
X8.174Y-3.492
X8.174Y-3.548
X8.174Y-3.608
X8.174Y-3.678
X8.174Y-3.75
X8.175Y-5.575
X8.176Y-3.162
X8.176Y-3.8
X8.1763Y-5.3513
X8.18Y-4.02
X8.18Y-4.34
X8.182Y-3.85
X8.186Y-5.276
X8.19Y-5.2087
X8.2Y-1.602
X8.2Y-5.7
X8.214Y-1.896
X8.225Y-1.95
X8.234Y-4.804
X8.234Y-4.958
X8.235Y-4.3936
X8.236Y-4.02
X8.242Y-5.096
X8.25Y-1.866
X8.262Y-1.962
X8.27Y-2.39
X8.294Y-4.02
X8.31Y-4.49
X8.322Y-2.21
X8.33Y-4.58
X8.34Y-4.53
X8.354Y-2.26
X8.356Y-4.02
X8.373Y-4.4236
X8.376Y-1.11
X8.414Y-4.02
X8.42Y-3.904
X8.436Y-3.006
X8.436Y-4.652
X8.45Y-1.925
X8.458Y-1.858
X8.47Y-2.463
X8.474Y-4.02
X8.488Y-2.8
X8.4983Y-4.4583
X8.5Y-1.775
X8.52Y-3.308
X8.5332Y-1.8418
X8.534Y-4.02
X8.56Y-5.26
X8.576Y-2.022
X8.595Y-4.52
X8.595Y-5.2283
X8.596Y-2.82
X8.5992Y-5.5008
X8.6Y-5.56
X8.612Y-0.992
X8.616Y-3.91
X8.6181Y-5.4173
X8.658Y-3.962
X8.67Y-2.9425
X8.6705Y-2.8575
X8.6964Y-4.8661
X8.716Y-3.542
X8.716Y-4.0
X8.72Y-5.7
X8.726Y-2.996
X8.774Y-3.6546
X8.774Y-4.018
X8.784Y-2.732
X8.814Y-3.728
X8.822Y-4.59
X8.83Y-4.04
X8.842Y-3.798
X8.844Y-3.338
X8.8632Y-4.0388
X8.864Y-3.864
X8.874Y-4.846
X8.886Y-3.924
X8.896Y-5.02
X8.898Y-5.16
X8.97Y-4.03
X8.978Y-1.962
X8.984Y-2.936
X9.015Y-4.05
X9.03Y-2.314
X9.03Y-2.556
X9.038Y-1.61
X9.0536Y-2.592
X9.098Y-2.62
X9.112Y-2.44
X9.112Y-2.492
X9.12Y-2.946
X9.134Y-2.464
X9.136Y-2.516
X9.138Y-2.738
X9.16Y-1.998
X9.24Y-2.948
X9.276Y-2.244
X9.3303Y-2.8897
X9.364Y-1.49
X9.384Y-1.218
X9.466Y-1.356
X9.47Y-2.844
X9.478Y-2.984
X9.482Y-3.792
X9.486Y-3.414
X9.5197Y-3.4143
X9.528Y-1.932
X9.528Y-3.582
X9.584Y-3.194
X9.598Y-1.56
X9.698Y-3.184
X9.75Y-2.185
X9.75Y-2.485
X9.75Y-2.785
X9.75Y-3.085
X9.75Y-3.385
X9.75Y-3.685
X9.75Y-3.985
X9.75Y-4.225
X9.752Y-1.188
X9.85Y-3.186
X10.158Y-1.63
X10.18Y-5.098
X10.456Y-1.46
X10.465Y-1.399
X10.518Y-5.284
X10.53Y-1.07
X10.534Y-5.894
X10.546Y-1.638
T2
X9.565Y-2.446
T3
X3.0463Y-2.5217
X3.0463Y-2.9217
X3.0463Y-3.3217
X3.0463Y-3.7183
X3.0463Y-4.1217
X3.0463Y-4.5217
X3.0463Y-4.9217
X3.0463Y-5.3217
X3.125Y-2.5217
X3.125Y-2.9217
X3.125Y-3.3217
X3.125Y-3.7183
X3.125Y-4.1217
X3.125Y-4.5217
X3.125Y-4.9217
X3.125Y-5.3217
X3.2037Y-2.5217
X3.2037Y-2.9217
X3.2037Y-3.3217
X3.2037Y-3.7183
X3.2037Y-4.1217
X3.2037Y-4.5217
X3.2037Y-4.9217
X3.2037Y-5.3217
X3.5925Y-4.1217
X3.5925Y-4.5217
X3.5925Y-4.9217
X3.5925Y-5.3217
X3.5963Y-2.5183
X3.5963Y-2.9217
X3.5963Y-3.3217
X3.5963Y-3.7183
X3.6713Y-4.1217
X3.6713Y-4.5217
X3.6713Y-4.9217
X3.6713Y-5.3217
X3.675Y-2.5183
X3.675Y-2.9217
X3.675Y-3.3217
X3.675Y-3.7183
X3.75Y-4.1217
X3.75Y-4.5217
X3.75Y-4.9217
X3.75Y-5.3217
X3.7537Y-2.5183
X3.7537Y-2.9217
X3.7537Y-3.3217
X3.7537Y-3.7183
X4.1425Y-4.1217
X4.1425Y-4.5217
X4.1425Y-4.9217
X4.1425Y-5.3217
X4.1463Y-2.5217
X4.1463Y-2.9217
X4.1463Y-3.3183
X4.1463Y-3.7217
X4.2213Y-4.1217
X4.2213Y-4.5217
X4.2213Y-4.9217
X4.2213Y-5.3217
X4.225Y-2.5217
X4.225Y-2.9217
X4.225Y-3.3183
X4.225Y-3.7217
X4.3Y-4.1217
X4.3Y-4.5217
X4.3Y-4.9217
X4.3Y-5.3217
X4.3037Y-2.5217
X4.3037Y-2.9217
X4.3037Y-3.3183
X4.3037Y-3.7217
X4.6925Y-4.1183
X4.6925Y-4.5217
X4.6925Y-4.9217
X4.6925Y-5.3183
X4.6963Y-2.5217
X4.6963Y-2.9217
X4.6963Y-3.7183
X4.7Y-3.3217
X4.7713Y-4.1183
X4.7713Y-4.5217
X4.7713Y-4.9217
X4.7713Y-5.3183
X4.775Y-2.5217
X4.775Y-2.9217
X4.775Y-3.7183
X4.7787Y-3.3217
X4.85Y-4.1183
X4.85Y-4.5217
X4.85Y-4.9217
X4.85Y-5.3183
X4.8537Y-2.5217
X4.8537Y-2.9217
X4.8537Y-3.7183
X4.8575Y-3.3217
X6.175Y-1.125
X6.225Y-1.125
X6.275Y-1.125
T4
X9.6182Y-4.644
X9.6446Y-4.707
X9.743Y-4.707
X9.7694Y-4.77
T5
X5.125Y-1.5502
X5.125Y-1.6502
X6.522Y-2.136
X6.622Y-2.136
X6.722Y-2.136
X6.822Y-2.136
X6.922Y-2.136
X8.15Y-0.925
X8.15Y-1.025
X8.15Y-1.125
X8.15Y-1.225
X8.15Y-1.325
X8.15Y-1.425
X8.525Y-2.1
X8.525Y-2.2
X8.625Y-2.1
X8.625Y-2.2
X8.725Y-2.1
X8.725Y-2.2
X8.825Y-2.1
X8.825Y-2.2
X8.925Y-2.1
X8.925Y-2.2
X9.496Y-4.3658
X9.496Y-4.4658
X9.84Y-4.3588
X9.84Y-4.4588
T6
X4.15Y-1.1547
X4.15Y-1.2531
X4.15Y-1.3516
X4.15Y-1.45
X9.0Y-3.12
X9.0Y-3.2184
X9.0Y-3.3169
X9.0Y-3.4153
X9.0Y-3.5137
X9.0Y-3.6121
X9.0Y-3.7106
X9.0Y-3.809
X9.0Y-3.9074
X9.28Y-3.12
X9.28Y-3.2184
X9.28Y-3.3169
X9.28Y-3.4153
X9.28Y-3.5137
X9.28Y-3.6121
X9.28Y-3.7106
X9.28Y-3.809
X9.28Y-3.9074
X10.1047Y-1.85
X10.1047Y-2.15
X10.1047Y-2.45
X10.1047Y-2.75
X10.1047Y-3.05
X10.1047Y-3.35
X10.1047Y-3.65
X10.1047Y-3.95
X10.1047Y-4.25
X10.2031Y-1.85
X10.2031Y-2.15
X10.2031Y-2.45
X10.2031Y-2.75
X10.2031Y-3.05
X10.2031Y-3.35
X10.2031Y-3.65
X10.2031Y-3.95
X10.2031Y-4.25
X10.3016Y-1.85
X10.3016Y-2.15
X10.3016Y-2.45
X10.3016Y-2.75
X10.3016Y-3.05
X10.3016Y-3.35
X10.3016Y-3.65
X10.3016Y-3.95
X10.3016Y-4.25
X10.4Y-1.85
X10.4Y-2.15
X10.4Y-2.45
X10.4Y-2.75
X10.4Y-3.05
X10.4Y-3.35
X10.4Y-3.65
X10.4Y-3.95
X10.4Y-4.25
T7
X5.5433Y-2.0168
T8
X1.3848Y-1.711
X1.3848Y-1.811
X1.3848Y-1.911
X1.3848Y-2.011
X1.3848Y-2.111
X1.3848Y-2.211
X1.3848Y-2.311
X1.4Y-2.9
X1.4Y-3.0
X1.4Y-3.1
X1.4Y-3.2
X1.4Y-3.3
X1.4Y-3.4
X1.4Y-3.5
X1.4Y-4.125
X1.4Y-4.225
X1.4Y-4.325
X1.4Y-4.425
X1.4Y-4.525
X1.4Y-4.625
X1.4Y-4.725
X1.4Y-5.275
X1.4Y-5.375
X1.4Y-5.475
X1.4Y-5.575
X1.4Y-5.675
X1.4Y-5.775
X1.4Y-5.875
X1.4848Y-1.711
X1.4848Y-1.811
X1.4848Y-1.911
X1.4848Y-2.011
X1.4848Y-2.111
X1.4848Y-2.211
X1.4848Y-2.311
X1.5Y-2.9
X1.5Y-3.0
X1.5Y-3.1
X1.5Y-3.2
X1.5Y-3.3
X1.5Y-3.4
X1.5Y-3.5
X1.5Y-4.125
X1.5Y-4.225
X1.5Y-4.325
X1.5Y-4.425
X1.5Y-4.525
X1.5Y-4.625
X1.5Y-4.725
X1.5Y-5.275
X1.5Y-5.375
X1.5Y-5.475
X1.5Y-5.575
X1.5Y-5.675
X1.5Y-5.775
X1.5Y-5.875
X1.9Y-4.725
X1.9Y-4.825
X1.9Y-4.925
X1.9Y-5.025
X1.9Y-5.125
X1.9Y-5.225
X1.9Y-5.325
X1.9246Y-1.111
X1.9246Y-1.211
X1.9246Y-1.311
X1.9246Y-1.411
X1.9246Y-1.511
X1.9246Y-1.611
X1.9246Y-1.711
X1.9246Y-3.511
X1.9246Y-3.611
X1.9246Y-3.711
X1.9246Y-3.811
X1.9246Y-3.911
X1.9246Y-4.011
X1.9246Y-4.111
X1.925Y-2.325
X1.925Y-2.425
X1.925Y-2.525
X1.925Y-2.625
X1.925Y-2.725
X1.925Y-2.825
X1.925Y-2.925
X2.0Y-4.725
X2.0Y-4.825
X2.0Y-4.925
X2.0Y-5.025
X2.0Y-5.125
X2.0Y-5.225
X2.0Y-5.325
X2.0246Y-1.111
X2.0246Y-1.211
X2.0246Y-1.311
X2.0246Y-1.411
X2.0246Y-1.511
X2.0246Y-1.611
X2.0246Y-1.711
X2.0246Y-3.511
X2.0246Y-3.611
X2.0246Y-3.711
X2.0246Y-3.811
X2.0246Y-3.911
X2.0246Y-4.011
X2.0246Y-4.111
X2.025Y-2.325
X2.025Y-2.425
X2.025Y-2.525
X2.025Y-2.625
X2.025Y-2.725
X2.025Y-2.825
X2.025Y-2.925
X3.225Y-1.0656
X3.225Y-1.225
X3.3844Y-1.0656
X3.3844Y-1.225
X3.432Y-5.904
X3.5439Y-1.0656
X3.5439Y-1.225
X3.7033Y-1.0656
X3.7033Y-1.225
X4.514Y-2.156
X4.55Y-5.902
X4.774Y-1.816
X5.34Y-2.478
X5.725Y-4.9
X5.725Y-5.0
X5.725Y-5.1
X5.725Y-5.2
X5.725Y-5.3
X5.725Y-5.4
X5.725Y-5.5
X5.725Y-5.6
X5.725Y-5.7
X5.775Y-1.525
X5.775Y-1.675
X5.775Y-1.825
X5.775Y-1.975
X5.825Y-4.9
X5.825Y-5.0
X5.825Y-5.1
X5.825Y-5.2
X5.825Y-5.3
X5.825Y-5.4
X5.825Y-5.5
X5.825Y-5.6
X5.825Y-5.7
X5.875Y-1.525
X5.875Y-1.675
X5.875Y-1.825
X5.875Y-1.975
X5.9449Y-2.2165
X5.975Y-1.525
X5.975Y-1.675
X5.975Y-1.825
X5.975Y-1.975
X6.125Y-2.4
X6.55Y-2.4
X6.6Y-4.9
X6.6Y-5.0
X6.6Y-5.1
X6.6Y-5.2
X6.6Y-5.3
X6.6Y-5.4
X6.6Y-5.5
X6.6Y-5.6
X6.6Y-5.7
X6.7Y-4.9
X6.7Y-5.0
X6.7Y-5.1
X6.7Y-5.2
X6.7Y-5.3
X6.7Y-5.4
X6.7Y-5.5
X6.7Y-5.6
X6.7Y-5.7
X6.975Y-2.4
X7.34Y-2.06
X7.4Y-2.4
X7.5Y-4.9
X7.5Y-5.0
X7.5Y-5.1
X7.5Y-5.2
X7.5Y-5.3
X7.5Y-5.4
X7.5Y-5.5
X7.5Y-5.6
X7.5Y-5.7
X7.6Y-4.9
X7.6Y-5.0
X7.6Y-5.1
X7.6Y-5.2
X7.6Y-5.3
X7.6Y-5.4
X7.6Y-5.5
X7.6Y-5.6
X7.6Y-5.7
X8.3Y-1.5998
X8.3Y-1.6998
X8.4Y-4.9
X8.4Y-5.0
X8.4Y-5.1
X8.4Y-5.2
X8.4Y-5.3
X8.4Y-5.4
X8.4Y-5.5
X8.4Y-5.6
X8.4Y-5.7
X8.5Y-4.9
X8.5Y-5.0
X8.5Y-5.1
X8.5Y-5.2
X8.5Y-5.3
X8.5Y-5.4
X8.5Y-5.5
X8.5Y-5.6
X8.5Y-5.7
X8.65Y-1.175
X8.65Y-1.375
X8.65Y-1.65
X8.65Y-1.875
X8.825Y-1.375
X8.825Y-1.65
X8.825Y-1.875
X9.27Y-4.179
X9.438Y-5.298
X9.472Y-4.175
X9.64Y-1.272
X9.642Y-1.402
X9.698Y-0.95
X10.07Y-4.768
X10.146Y-4.51
X10.436Y-1.638
T9
X5.1Y-1.2199
X5.2Y-1.2199
X5.3Y-1.2199
X9.1949Y-4.87
X9.1949Y-4.97
X9.1949Y-5.07
X9.7549Y-5.05
X9.7549Y-5.15
X9.7549Y-5.25
T10
X6.597Y-0.9864
X6.597Y-1.1636
X6.853Y-0.9864
X6.853Y-1.1636
X8.5941Y-2.4478
X8.5941Y-2.625
X8.85Y-2.4478
X8.85Y-2.625
T11
X4.878Y-1.1465
X4.878Y-1.5465
T12
X5.725Y-1.025
X5.925Y-1.025
T13
X10.4Y-4.55
X10.4Y-4.75
X10.4Y-4.95
T14
X9.0081Y-5.4547
X9.0081Y-5.8453
X9.1419Y-5.4547
X9.1419Y-5.8453
T15
X1.475Y-1.1
X1.9Y-5.85
X5.4Y-3.7
X9.76Y-1.785
X10.392Y-5.652
T8
G00X9.4109Y-5.5058
M15
G01X9.4897Y-5.5058
M16
G05
G00X9.4109Y-5.742
M15
G01X9.4897Y-5.742
M16
G05
G00X9.6353Y-5.6633
M15
G01X9.6353Y-5.5845
M16
G05
G00X9.8756Y-5.507
M15
G01X9.9544Y-5.507
M16
G05
G00X9.8756Y-5.7432
M15
G01X9.9544Y-5.7432
M16
G05
G00X10.1Y-5.6645
M15
G01X10.1Y-5.5857
M16
G05
M30
