%TF.GenerationSoftware,KiCad,Pcbnew,9.0.3*%
%TF.CreationDate,2025-09-18T23:18:24-06:00*%
%TF.ProjectId,Main Board,4d61696e-2042-46f6-9172-642e6b696361,rev?*%
%TF.SameCoordinates,Original*%
%TF.FileFunction,Soldermask,Bot*%
%TF.FilePolarity,Negative*%
%FSLAX46Y46*%
G04 Gerber Fmt 4.6, Leading zero omitted, Abs format (unit mm)*
G04 Created by KiCad (PCBNEW 9.0.3) date 2025-09-18 23:18:24*
%MOMM*%
%LPD*%
G01*
G04 APERTURE LIST*
G04 Aperture macros list*
%AMRoundRect*
0 Rectangle with rounded corners*
0 $1 Rounding radius*
0 $2 $3 $4 $5 $6 $7 $8 $9 X,Y pos of 4 corners*
0 Add a 4 corners polygon primitive as box body*
4,1,4,$2,$3,$4,$5,$6,$7,$8,$9,$2,$3,0*
0 Add four circle primitives for the rounded corners*
1,1,$1+$1,$2,$3*
1,1,$1+$1,$4,$5*
1,1,$1+$1,$6,$7*
1,1,$1+$1,$8,$9*
0 Add four rect primitives between the rounded corners*
20,1,$1+$1,$2,$3,$4,$5,0*
20,1,$1+$1,$4,$5,$6,$7,0*
20,1,$1+$1,$6,$7,$8,$9,0*
20,1,$1+$1,$8,$9,$2,$3,0*%
%AMFreePoly0*
4,1,25,0.427955,0.971196,0.440078,0.960842,0.960842,0.440078,0.989349,0.384130,0.990600,0.368236,0.990600,-0.368236,0.971196,-0.427955,0.960842,-0.440078,0.440078,-0.960842,0.384130,-0.989349,0.368236,-0.990600,-0.368236,-0.990600,-0.427955,-0.971196,-0.440078,-0.960842,-0.960842,-0.440078,-0.989349,-0.384130,-0.990600,-0.368236,-0.990600,0.368236,-0.971196,0.427955,-0.960842,0.440078,
-0.440078,0.960842,-0.384130,0.989349,-0.368236,0.990600,0.368236,0.990600,0.427955,0.971196,0.427955,0.971196,$1*%
G04 Aperture macros list end*
%ADD10RoundRect,0.250001X0.949999X-0.949999X0.949999X0.949999X-0.949999X0.949999X-0.949999X-0.949999X0*%
%ADD11C,2.400000*%
%ADD12RoundRect,0.250000X0.350000X0.625000X-0.350000X0.625000X-0.350000X-0.625000X0.350000X-0.625000X0*%
%ADD13O,1.200000X1.750000*%
%ADD14C,2.000000*%
%ADD15RoundRect,0.250000X0.550000X0.550000X-0.550000X0.550000X-0.550000X-0.550000X0.550000X-0.550000X0*%
%ADD16C,1.600000*%
%ADD17RoundRect,0.250000X0.600000X0.600000X-0.600000X0.600000X-0.600000X-0.600000X0.600000X-0.600000X0*%
%ADD18C,1.700000*%
%ADD19RoundRect,0.102000X0.802500X0.802500X-0.802500X0.802500X-0.802500X-0.802500X0.802500X-0.802500X0*%
%ADD20C,1.809000*%
%ADD21R,3.000000X3.000000*%
%ADD22C,3.000000*%
%ADD23FreePoly0,270.000000*%
%ADD24RoundRect,0.101600X-0.889000X0.889000X-0.889000X-0.889000X0.889000X-0.889000X0.889000X0.889000X0*%
%ADD25R,1.800000X1.800000*%
%ADD26C,1.800000*%
%ADD27RoundRect,0.250000X0.600000X0.725000X-0.600000X0.725000X-0.600000X-0.725000X0.600000X-0.725000X0*%
%ADD28O,1.700000X1.950000*%
%ADD29RoundRect,0.250000X0.725000X-0.600000X0.725000X0.600000X-0.725000X0.600000X-0.725000X-0.600000X0*%
%ADD30O,1.950000X1.700000*%
%ADD31RoundRect,0.250000X-0.600000X-0.600000X0.600000X-0.600000X0.600000X0.600000X-0.600000X0.600000X0*%
%ADD32R,1.700000X1.700000*%
%ADD33R,3.500000X3.500000*%
%ADD34RoundRect,0.750000X1.000000X-0.750000X1.000000X0.750000X-1.000000X0.750000X-1.000000X-0.750000X0*%
%ADD35RoundRect,0.875000X0.875000X-0.875000X0.875000X0.875000X-0.875000X0.875000X-0.875000X-0.875000X0*%
%ADD36RoundRect,0.250000X1.050000X1.050000X-1.050000X1.050000X-1.050000X-1.050000X1.050000X-1.050000X0*%
%ADD37C,2.600000*%
%ADD38C,8.600000*%
%ADD39RoundRect,0.102000X0.802500X-0.802500X0.802500X0.802500X-0.802500X0.802500X-0.802500X-0.802500X0*%
%ADD40C,2.604000*%
%ADD41R,1.050000X1.500000*%
%ADD42O,1.050000X1.500000*%
%ADD43RoundRect,0.250000X-0.725000X0.600000X-0.725000X-0.600000X0.725000X-0.600000X0.725000X0.600000X0*%
%ADD44C,1.981200*%
%ADD45FreePoly0,180.000000*%
%ADD46RoundRect,0.101600X0.889000X0.889000X-0.889000X0.889000X-0.889000X-0.889000X0.889000X-0.889000X0*%
G04 APERTURE END LIST*
D10*
%TO.C,D100*%
X123900000Y-39280000D03*
D11*
X123900000Y-29120000D03*
%TD*%
D12*
%TO.C,J19*%
X109315000Y-94530000D03*
D13*
X107315000Y-94530000D03*
X105315000Y-94530000D03*
%TD*%
D12*
%TO.C,J16*%
X123285000Y-74210000D03*
D13*
X121285000Y-74210000D03*
X119285000Y-74210000D03*
%TD*%
D12*
%TO.C,J23*%
X81375000Y-94445000D03*
D13*
X79375000Y-94445000D03*
X77375000Y-94445000D03*
%TD*%
D14*
%TO.C,TP14*%
X186436000Y-52324000D03*
%TD*%
%TO.C,TP9*%
X219710000Y-41910000D03*
%TD*%
D12*
%TO.C,J40*%
X109220000Y-125010000D03*
D13*
X107220000Y-125010000D03*
X105220000Y-125010000D03*
%TD*%
D12*
%TO.C,J38*%
X109220000Y-135170000D03*
D13*
X107220000Y-135170000D03*
X105220000Y-135170000D03*
%TD*%
D14*
%TO.C,TP27*%
X235458000Y-106146600D03*
%TD*%
D15*
%TO.C,C80*%
X248143137Y-121157800D03*
X247472200Y-119557800D03*
D16*
X244972200Y-119557800D03*
X244301263Y-117957800D03*
%TD*%
D14*
%TO.C,SW2*%
X167565000Y-25055000D03*
X174065000Y-25055000D03*
X167565000Y-29555000D03*
X174065000Y-29555000D03*
%TD*%
D17*
%TO.C,J47*%
X170180000Y-144780000D03*
D18*
X167640000Y-144780000D03*
X170180000Y-142240000D03*
X167640000Y-142240000D03*
X170180000Y-139700000D03*
X167640000Y-139700000D03*
X170180000Y-137160000D03*
X167640000Y-137160000D03*
X170180000Y-134620000D03*
X167640000Y-134620000D03*
X170180000Y-132080000D03*
X167640000Y-132080000D03*
X170180000Y-129540000D03*
X167640000Y-129540000D03*
X170180000Y-127000000D03*
X167640000Y-127000000D03*
X170180000Y-124460000D03*
X167640000Y-124460000D03*
%TD*%
D14*
%TO.C,TP15*%
X244906800Y-35610800D03*
%TD*%
D12*
%TO.C,J32*%
X95250000Y-114850000D03*
D13*
X93250000Y-114850000D03*
X91250000Y-114850000D03*
%TD*%
D14*
%TO.C,TP1*%
X94065000Y-31115000D03*
%TD*%
D19*
%TO.C,PS1*%
X134620000Y-30985000D03*
D20*
X132080000Y-30985000D03*
X129540000Y-30985000D03*
%TD*%
D12*
%TO.C,J33*%
X81375000Y-125010000D03*
D13*
X79375000Y-125010000D03*
X77375000Y-125010000D03*
%TD*%
D14*
%TO.C,TP20*%
X224155000Y-47625000D03*
%TD*%
D21*
%TO.C,J88*%
X264160000Y-125730000D03*
D22*
X264160000Y-120650000D03*
X264160000Y-115570000D03*
%TD*%
D12*
%TO.C,J34*%
X95250000Y-125010000D03*
D13*
X93250000Y-125010000D03*
X91250000Y-125010000D03*
%TD*%
D23*
%TO.C,J1*%
X207010000Y-26035000D03*
D24*
X207010000Y-23495000D03*
D23*
X207010000Y-36195000D03*
X207010000Y-33655000D03*
X207010000Y-31115000D03*
X207010000Y-28575000D03*
%TD*%
D14*
%TO.C,TP5*%
X85965000Y-31115000D03*
%TD*%
%TO.C,TP13*%
X224155000Y-41910000D03*
%TD*%
D12*
%TO.C,J25*%
X81375000Y-64050000D03*
D13*
X79375000Y-64050000D03*
X77375000Y-64050000D03*
%TD*%
D25*
%TO.C,D97*%
X249936000Y-110713600D03*
D26*
X249936000Y-113253600D03*
%TD*%
D25*
%TO.C,D98*%
X130175000Y-41915000D03*
D26*
X130175000Y-39375000D03*
%TD*%
D14*
%TO.C,TP22*%
X155575000Y-60960000D03*
%TD*%
D27*
%TO.C,J95*%
X264160000Y-107950000D03*
D28*
X261660000Y-107950000D03*
X259160000Y-107950000D03*
X256660000Y-107950000D03*
%TD*%
D27*
%TO.C,J85*%
X264160000Y-69850000D03*
D28*
X261660000Y-69850000D03*
X259160000Y-69850000D03*
X256660000Y-69850000D03*
%TD*%
D29*
%TO.C,J98*%
X235712000Y-99248000D03*
D30*
X235712000Y-96748000D03*
X235712000Y-94248000D03*
X235712000Y-91748000D03*
X235712000Y-89248000D03*
X235712000Y-86748000D03*
X235712000Y-84248000D03*
X235712000Y-81748000D03*
X235712000Y-79248000D03*
%TD*%
D14*
%TO.C,TP28*%
X115570000Y-149910800D03*
%TD*%
%TO.C,TP3*%
X90015000Y-31115000D03*
%TD*%
D25*
%TO.C,D99*%
X241198400Y-110891400D03*
D26*
X241198400Y-113431400D03*
%TD*%
D12*
%TO.C,J15*%
X109315000Y-74210000D03*
D13*
X107315000Y-74210000D03*
X105315000Y-74210000D03*
%TD*%
D31*
%TO.C,J12*%
X35560000Y-133985000D03*
D18*
X38100000Y-133985000D03*
X35560000Y-136525000D03*
X38100000Y-136525000D03*
X35560000Y-139065000D03*
X38100000Y-139065000D03*
X35560000Y-141605000D03*
X38100000Y-141605000D03*
X35560000Y-144145000D03*
X38100000Y-144145000D03*
X35560000Y-146685000D03*
X38100000Y-146685000D03*
X35560000Y-149225000D03*
X38100000Y-149225000D03*
%TD*%
D14*
%TO.C,TP21*%
X187960000Y-60960000D03*
%TD*%
D12*
%TO.C,J31*%
X81375000Y-114850000D03*
D13*
X79375000Y-114850000D03*
X77375000Y-114850000D03*
%TD*%
D14*
%TO.C,TP31*%
X239725200Y-134569200D03*
%TD*%
%TO.C,TP17*%
X244856000Y-32308800D03*
%TD*%
D32*
%TO.C,J89*%
X146685000Y-46355000D03*
D18*
X149225000Y-46355000D03*
X151765000Y-46355000D03*
%TD*%
D29*
%TO.C,J97*%
X228600000Y-99248000D03*
D30*
X228600000Y-96748000D03*
X228600000Y-94248000D03*
X228600000Y-91748000D03*
X228600000Y-89248000D03*
X228600000Y-86748000D03*
X228600000Y-84248000D03*
X228600000Y-81748000D03*
X228600000Y-79248000D03*
%TD*%
D32*
%TO.C,J90*%
X146685000Y-50165000D03*
D18*
X149225000Y-50165000D03*
X151765000Y-50165000D03*
%TD*%
D14*
%TO.C,TP6*%
X85965000Y-27065000D03*
%TD*%
D33*
%TO.C,J99*%
X240037700Y-139846800D03*
D34*
X240037700Y-145846800D03*
D35*
X244737700Y-142846800D03*
%TD*%
D12*
%TO.C,J37*%
X123190000Y-135085000D03*
D13*
X121190000Y-135085000D03*
X119190000Y-135085000D03*
%TD*%
D14*
%TO.C,SW1*%
X218290000Y-62175000D03*
X224790000Y-62175000D03*
X218290000Y-66675000D03*
X224790000Y-66675000D03*
%TD*%
%TO.C,TP12*%
X219710000Y-29845000D03*
%TD*%
%TO.C,TP7*%
X81915000Y-31115000D03*
%TD*%
D17*
%TO.C,J103*%
X215900000Y-144780000D03*
D18*
X213360000Y-144780000D03*
X215900000Y-142240000D03*
X213360000Y-142240000D03*
X215900000Y-139700000D03*
X213360000Y-139700000D03*
X215900000Y-137160000D03*
X213360000Y-137160000D03*
X215900000Y-134620000D03*
X213360000Y-134620000D03*
X215900000Y-132080000D03*
X213360000Y-132080000D03*
X215900000Y-129540000D03*
X213360000Y-129540000D03*
X215900000Y-127000000D03*
X213360000Y-127000000D03*
X215900000Y-124460000D03*
X213360000Y-124460000D03*
%TD*%
D12*
%TO.C,J41*%
X123190000Y-114850000D03*
D13*
X121190000Y-114850000D03*
X119190000Y-114850000D03*
%TD*%
D12*
%TO.C,J24*%
X95345000Y-94445000D03*
D13*
X93345000Y-94445000D03*
X91345000Y-94445000D03*
%TD*%
D32*
%TO.C,J45*%
X210820000Y-40635000D03*
D18*
X210820000Y-43175000D03*
%TD*%
D36*
%TO.C,J102*%
X150495000Y-26035000D03*
D37*
X145415000Y-26035000D03*
%TD*%
D12*
%TO.C,J17*%
X109315000Y-84285000D03*
D13*
X107315000Y-84285000D03*
X105315000Y-84285000D03*
%TD*%
D27*
%TO.C,J87*%
X264160000Y-85090000D03*
D28*
X261660000Y-85090000D03*
X259160000Y-85090000D03*
X256660000Y-85090000D03*
%TD*%
D33*
%TO.C,J49*%
X251841000Y-139877800D03*
D34*
X251841000Y-145877800D03*
D35*
X256541000Y-142877800D03*
%TD*%
D14*
%TO.C,TP26*%
X114655600Y-54762400D03*
%TD*%
D27*
%TO.C,J94*%
X264160000Y-100330000D03*
D28*
X261660000Y-100330000D03*
X259160000Y-100330000D03*
X256660000Y-100330000D03*
%TD*%
D12*
%TO.C,J22*%
X95345000Y-84370000D03*
D13*
X93345000Y-84370000D03*
X91345000Y-84370000D03*
%TD*%
D14*
%TO.C,TP4*%
X90015000Y-27065000D03*
%TD*%
%TO.C,TP10*%
X224155000Y-34925000D03*
%TD*%
D27*
%TO.C,J4*%
X264160000Y-62230000D03*
D28*
X261660000Y-62230000D03*
X259160000Y-62230000D03*
X256660000Y-62230000D03*
%TD*%
D27*
%TO.C,J2*%
X264160000Y-46990000D03*
D28*
X261660000Y-46990000D03*
X259160000Y-46990000D03*
X256660000Y-46990000D03*
%TD*%
D14*
%TO.C,TP29*%
X87172800Y-149961600D03*
%TD*%
D17*
%TO.C,J10*%
X38100000Y-120015000D03*
D18*
X35560000Y-120015000D03*
X38100000Y-117475000D03*
X35560000Y-117475000D03*
X38100000Y-114935000D03*
X35560000Y-114935000D03*
X38100000Y-112395000D03*
X35560000Y-112395000D03*
X38100000Y-109855000D03*
X35560000Y-109855000D03*
X38100000Y-107315000D03*
X35560000Y-107315000D03*
X38100000Y-104775000D03*
X35560000Y-104775000D03*
%TD*%
D14*
%TO.C,TP16*%
X246329200Y-24130000D03*
%TD*%
D38*
%TO.C,H4*%
X247904000Y-45339000D03*
%TD*%
D17*
%TO.C,J11*%
X50800000Y-135255000D03*
D18*
X48260000Y-135255000D03*
X50800000Y-132715000D03*
X48260000Y-132715000D03*
X50800000Y-130175000D03*
X48260000Y-130175000D03*
X50800000Y-127635000D03*
X48260000Y-127635000D03*
X50800000Y-125095000D03*
X48260000Y-125095000D03*
X50800000Y-122555000D03*
X48260000Y-122555000D03*
X50800000Y-120015000D03*
X48260000Y-120015000D03*
%TD*%
D12*
%TO.C,J44*%
X109220000Y-104690000D03*
D13*
X107220000Y-104690000D03*
X105220000Y-104690000D03*
%TD*%
D12*
%TO.C,J43*%
X123190000Y-104605000D03*
D13*
X121190000Y-104605000D03*
X119190000Y-104605000D03*
%TD*%
D12*
%TO.C,J13*%
X109315000Y-64050000D03*
D13*
X107315000Y-64050000D03*
X105315000Y-64050000D03*
%TD*%
D31*
%TO.C,J5*%
X48885000Y-28220000D03*
D18*
X51425000Y-28220000D03*
X48885000Y-30760000D03*
X51425000Y-30760000D03*
X48885000Y-33300000D03*
X51425000Y-33300000D03*
X48885000Y-35840000D03*
X51425000Y-35840000D03*
X48885000Y-38380000D03*
X51425000Y-38380000D03*
X48885000Y-40920000D03*
X51425000Y-40920000D03*
X48885000Y-43460000D03*
X51425000Y-43460000D03*
%TD*%
D14*
%TO.C,TP18*%
X265074400Y-41605200D03*
%TD*%
D39*
%TO.C,PS3*%
X247775000Y-133350000D03*
D20*
X247775000Y-130810000D03*
X247775000Y-128270000D03*
%TD*%
D40*
%TO.C,F1*%
X228805000Y-148470000D03*
X228805000Y-138550000D03*
X232205000Y-148470000D03*
X232205000Y-138550000D03*
%TD*%
D38*
%TO.C,H3*%
X263956800Y-143560800D03*
%TD*%
D14*
%TO.C,TP30*%
X257708400Y-114554000D03*
%TD*%
D41*
%TO.C,Q2*%
X156845000Y-28575000D03*
D42*
X158115000Y-28575000D03*
X159385000Y-28575000D03*
%TD*%
D38*
%TO.C,H2*%
X48260000Y-148590000D03*
%TD*%
D12*
%TO.C,J35*%
X81375000Y-135170000D03*
D13*
X79375000Y-135170000D03*
X77375000Y-135170000D03*
%TD*%
D39*
%TO.C,PS2*%
X233551000Y-128778000D03*
D20*
X233551000Y-126238000D03*
X233551000Y-123698000D03*
%TD*%
D12*
%TO.C,J28*%
X81375000Y-74210000D03*
D13*
X79375000Y-74210000D03*
X77375000Y-74210000D03*
%TD*%
D27*
%TO.C,J86*%
X264160000Y-77470000D03*
D28*
X261660000Y-77470000D03*
X259160000Y-77470000D03*
X256660000Y-77470000D03*
%TD*%
D27*
%TO.C,J3*%
X264160000Y-54610000D03*
D28*
X261660000Y-54610000D03*
X259160000Y-54610000D03*
X256660000Y-54610000D03*
%TD*%
D12*
%TO.C,J36*%
X95250000Y-135170000D03*
D13*
X93250000Y-135170000D03*
X91250000Y-135170000D03*
%TD*%
D31*
%TO.C,J9*%
X48885000Y-89180000D03*
D18*
X51425000Y-89180000D03*
X48885000Y-91720000D03*
X51425000Y-91720000D03*
X48885000Y-94260000D03*
X51425000Y-94260000D03*
X48885000Y-96800000D03*
X51425000Y-96800000D03*
X48885000Y-99340000D03*
X51425000Y-99340000D03*
X48885000Y-101880000D03*
X51425000Y-101880000D03*
X48885000Y-104420000D03*
X51425000Y-104420000D03*
%TD*%
D38*
%TO.C,H1*%
X37465000Y-27940000D03*
%TD*%
D12*
%TO.C,J42*%
X109220000Y-114850000D03*
D13*
X107220000Y-114850000D03*
X105220000Y-114850000D03*
%TD*%
D31*
%TO.C,J6*%
X35175000Y-43460000D03*
D18*
X37715000Y-43460000D03*
X35175000Y-46000000D03*
X37715000Y-46000000D03*
X35175000Y-48540000D03*
X37715000Y-48540000D03*
X35175000Y-51080000D03*
X37715000Y-51080000D03*
X35175000Y-53620000D03*
X37715000Y-53620000D03*
X35175000Y-56160000D03*
X37715000Y-56160000D03*
X35175000Y-58700000D03*
X37715000Y-58700000D03*
%TD*%
D27*
%TO.C,J93*%
X264160000Y-92710000D03*
D28*
X261660000Y-92710000D03*
X259160000Y-92710000D03*
X256660000Y-92710000D03*
%TD*%
D14*
%TO.C,TP33*%
X240588800Y-106045000D03*
%TD*%
D12*
%TO.C,J14*%
X123285000Y-64050000D03*
D13*
X121285000Y-64050000D03*
X119285000Y-64050000D03*
%TD*%
D14*
%TO.C,TP8*%
X81915000Y-27065000D03*
%TD*%
D12*
%TO.C,J26*%
X95345000Y-63965000D03*
D13*
X93345000Y-63965000D03*
X91345000Y-63965000D03*
%TD*%
D17*
%TO.C,J48*%
X193040000Y-144780000D03*
D18*
X190500000Y-144780000D03*
X193040000Y-142240000D03*
X190500000Y-142240000D03*
X193040000Y-139700000D03*
X190500000Y-139700000D03*
X193040000Y-137160000D03*
X190500000Y-137160000D03*
X193040000Y-134620000D03*
X190500000Y-134620000D03*
X193040000Y-132080000D03*
X190500000Y-132080000D03*
X193040000Y-129540000D03*
X190500000Y-129540000D03*
X193040000Y-127000000D03*
X190500000Y-127000000D03*
X193040000Y-124460000D03*
X190500000Y-124460000D03*
%TD*%
D43*
%TO.C,J96*%
X105410000Y-29330000D03*
D30*
X105410000Y-31830000D03*
X105410000Y-34330000D03*
X105410000Y-36830000D03*
%TD*%
D14*
%TO.C,TP32*%
X255778000Y-121107200D03*
%TD*%
D12*
%TO.C,J18*%
X123380000Y-84370000D03*
D13*
X121380000Y-84370000D03*
X119380000Y-84370000D03*
%TD*%
D17*
%TO.C,J7*%
X51435000Y-74295000D03*
D18*
X48895000Y-74295000D03*
X51435000Y-71755000D03*
X48895000Y-71755000D03*
X51435000Y-69215000D03*
X48895000Y-69215000D03*
X51435000Y-66675000D03*
X48895000Y-66675000D03*
X51435000Y-64135000D03*
X48895000Y-64135000D03*
X51435000Y-61595000D03*
X48895000Y-61595000D03*
X51435000Y-59055000D03*
X48895000Y-59055000D03*
%TD*%
D12*
%TO.C,J20*%
X123285000Y-94445000D03*
D13*
X121285000Y-94445000D03*
X119285000Y-94445000D03*
%TD*%
D12*
%TO.C,J39*%
X123190000Y-125010000D03*
D13*
X121190000Y-125010000D03*
X119190000Y-125010000D03*
%TD*%
D32*
%TO.C,J91*%
X146685000Y-38735000D03*
D18*
X149225000Y-38735000D03*
X151765000Y-38735000D03*
%TD*%
D17*
%TO.C,J8*%
X38100000Y-88900000D03*
D18*
X35560000Y-88900000D03*
X38100000Y-86360000D03*
X35560000Y-86360000D03*
X38100000Y-83820000D03*
X35560000Y-83820000D03*
X38100000Y-81280000D03*
X35560000Y-81280000D03*
X38100000Y-78740000D03*
X35560000Y-78740000D03*
X38100000Y-76200000D03*
X35560000Y-76200000D03*
X38100000Y-73660000D03*
X35560000Y-73660000D03*
%TD*%
D44*
%TO.C,J111*%
X168198800Y-54254400D03*
D45*
X175818800Y-54254400D03*
D44*
X173278800Y-54254400D03*
X165658800Y-54254400D03*
X170738800Y-54254400D03*
%TD*%
D45*
%TO.C,U22*%
X216535000Y-53340000D03*
X216535000Y-55880000D03*
D46*
X226695000Y-55880000D03*
D45*
X219075000Y-55880000D03*
X224155000Y-55880000D03*
X219075000Y-53340000D03*
X221615000Y-53340000D03*
X221615000Y-55880000D03*
X226695000Y-53340000D03*
X224155000Y-53340000D03*
%TD*%
D14*
%TO.C,TP23*%
X166370000Y-60960000D03*
%TD*%
%TO.C,TP2*%
X94065000Y-27065000D03*
%TD*%
D12*
%TO.C,J30*%
X95250000Y-104690000D03*
D13*
X93250000Y-104690000D03*
X91250000Y-104690000D03*
%TD*%
D12*
%TO.C,J29*%
X81375000Y-104690000D03*
D13*
X79375000Y-104690000D03*
X77375000Y-104690000D03*
%TD*%
D14*
%TO.C,TP11*%
X219710000Y-34925000D03*
%TD*%
D17*
%TO.C,J46*%
X147955000Y-144780000D03*
D18*
X145415000Y-144780000D03*
X147955000Y-142240000D03*
X145415000Y-142240000D03*
X147955000Y-139700000D03*
X145415000Y-139700000D03*
X147955000Y-137160000D03*
X145415000Y-137160000D03*
X147955000Y-134620000D03*
X145415000Y-134620000D03*
X147955000Y-132080000D03*
X145415000Y-132080000D03*
X147955000Y-129540000D03*
X145415000Y-129540000D03*
X147955000Y-127000000D03*
X145415000Y-127000000D03*
X147955000Y-124460000D03*
X145415000Y-124460000D03*
%TD*%
D38*
%TO.C,H5*%
X137160000Y-93980000D03*
%TD*%
D14*
%TO.C,TP34*%
X121259600Y-46126400D03*
%TD*%
D32*
%TO.C,J92*%
X146685000Y-42545000D03*
D18*
X149225000Y-42545000D03*
X151765000Y-42545000D03*
%TD*%
D12*
%TO.C,J21*%
X81375000Y-84370000D03*
D13*
X79375000Y-84370000D03*
X77375000Y-84370000D03*
%TD*%
D14*
%TO.C,TP35*%
X151000000Y-56300000D03*
%TD*%
%TO.C,TP19*%
X219710000Y-47625000D03*
%TD*%
%TO.C,TP25*%
X135636000Y-62941200D03*
%TD*%
D12*
%TO.C,J27*%
X95345000Y-74210000D03*
D13*
X93345000Y-74210000D03*
X91345000Y-74210000D03*
%TD*%
D14*
%TO.C,TP24*%
X177165000Y-60960000D03*
%TD*%
M02*
