%TF.GenerationSoftware,KiCad,Pcbnew,9.0.3*%
%TF.CreationDate,2025-09-18T23:18:23-06:00*%
%TF.ProjectId,Main Board,4d61696e-2042-46f6-9172-642e6b696361,rev?*%
%TF.SameCoordinates,Original*%
%TF.FileFunction,Paste,Top*%
%TF.FilePolarity,Positive*%
%FSLAX46Y46*%
G04 Gerber Fmt 4.6, Leading zero omitted, Abs format (unit mm)*
G04 Created by KiCad (PCBNEW 9.0.3) date 2025-09-18 23:18:23*
%MOMM*%
%LPD*%
G01*
G04 APERTURE LIST*
G04 Aperture macros list*
%AMRoundRect*
0 Rectangle with rounded corners*
0 $1 Rounding radius*
0 $2 $3 $4 $5 $6 $7 $8 $9 X,Y pos of 4 corners*
0 Add a 4 corners polygon primitive as box body*
4,1,4,$2,$3,$4,$5,$6,$7,$8,$9,$2,$3,0*
0 Add four circle primitives for the rounded corners*
1,1,$1+$1,$2,$3*
1,1,$1+$1,$4,$5*
1,1,$1+$1,$6,$7*
1,1,$1+$1,$8,$9*
0 Add four rect primitives between the rounded corners*
20,1,$1+$1,$2,$3,$4,$5,0*
20,1,$1+$1,$4,$5,$6,$7,0*
20,1,$1+$1,$6,$7,$8,$9,0*
20,1,$1+$1,$8,$9,$2,$3,0*%
G04 Aperture macros list end*
%ADD10RoundRect,0.200000X-0.200000X-0.275000X0.200000X-0.275000X0.200000X0.275000X-0.200000X0.275000X0*%
%ADD11RoundRect,0.237500X-0.300000X-0.237500X0.300000X-0.237500X0.300000X0.237500X-0.300000X0.237500X0*%
%ADD12RoundRect,0.112500X0.112500X-0.187500X0.112500X0.187500X-0.112500X0.187500X-0.112500X-0.187500X0*%
%ADD13RoundRect,0.112500X0.187500X0.112500X-0.187500X0.112500X-0.187500X-0.112500X0.187500X-0.112500X0*%
%ADD14RoundRect,0.200000X0.275000X-0.200000X0.275000X0.200000X-0.275000X0.200000X-0.275000X-0.200000X0*%
%ADD15RoundRect,0.200000X0.200000X0.275000X-0.200000X0.275000X-0.200000X-0.275000X0.200000X-0.275000X0*%
%ADD16RoundRect,0.200000X-0.275000X0.200000X-0.275000X-0.200000X0.275000X-0.200000X0.275000X0.200000X0*%
%ADD17RoundRect,0.250000X-0.475000X0.337500X-0.475000X-0.337500X0.475000X-0.337500X0.475000X0.337500X0*%
%ADD18R,1.676400X0.355600*%
%ADD19RoundRect,0.075000X-0.540000X-0.225000X0.540000X-0.225000X0.540000X0.225000X-0.540000X0.225000X0*%
%ADD20RoundRect,0.112500X-0.187500X-0.112500X0.187500X-0.112500X0.187500X0.112500X-0.187500X0.112500X0*%
%ADD21R,1.409700X0.355600*%
%ADD22RoundRect,0.250000X0.337500X0.475000X-0.337500X0.475000X-0.337500X-0.475000X0.337500X-0.475000X0*%
%ADD23RoundRect,0.250000X0.475000X-0.337500X0.475000X0.337500X-0.475000X0.337500X-0.475000X-0.337500X0*%
%ADD24R,0.558800X1.981200*%
%ADD25RoundRect,0.250000X-0.337500X-0.475000X0.337500X-0.475000X0.337500X0.475000X-0.337500X0.475000X0*%
%ADD26R,1.500000X0.900000*%
%ADD27R,0.900000X1.500000*%
%ADD28R,0.900000X0.900000*%
%ADD29R,2.000000X0.800000*%
%ADD30R,1.400000X1.800000*%
%ADD31R,1.900000X1.400000*%
G04 APERTURE END LIST*
D10*
%TO.C,R16*%
X109540000Y-88815000D03*
X111190000Y-88815000D03*
%TD*%
D11*
%TO.C,C34*%
X150712500Y-83820000D03*
X152437500Y-83820000D03*
%TD*%
%TO.C,C66*%
X180747500Y-90170000D03*
X182472500Y-90170000D03*
%TD*%
D10*
%TO.C,R74*%
X200280000Y-77470000D03*
X201930000Y-77470000D03*
%TD*%
D12*
%TO.C,D87*%
X86995000Y-136220000D03*
X86995000Y-134120000D03*
%TD*%
D10*
%TO.C,R34*%
X109475000Y-109135000D03*
X111125000Y-109135000D03*
%TD*%
%TO.C,R4*%
X123445000Y-68495000D03*
X125095000Y-68495000D03*
%TD*%
D13*
%TO.C,D53*%
X160435000Y-139065000D03*
X158335000Y-139065000D03*
%TD*%
D14*
%TO.C,R201*%
X165100000Y-105473000D03*
X165100000Y-103823000D03*
%TD*%
D13*
%TO.C,D37*%
X160435000Y-146685000D03*
X158335000Y-146685000D03*
%TD*%
D10*
%TO.C,R64*%
X81345000Y-109560000D03*
X82995000Y-109560000D03*
%TD*%
D14*
%TO.C,R160*%
X204978000Y-63549800D03*
X204978000Y-61899800D03*
%TD*%
D15*
%TO.C,R3*%
X105473000Y-68580000D03*
X103823000Y-68580000D03*
%TD*%
D12*
%TO.C,D89*%
X128810000Y-136210000D03*
X128810000Y-134110000D03*
%TD*%
%TO.C,D81*%
X86805000Y-105400000D03*
X86805000Y-103300000D03*
%TD*%
D11*
%TO.C,C19*%
X196177500Y-99695000D03*
X197902500Y-99695000D03*
%TD*%
D16*
%TO.C,R161*%
X211328000Y-47549800D03*
X211328000Y-49199800D03*
%TD*%
D17*
%TO.C,C83*%
X161747200Y-61294100D03*
X161747200Y-63369100D03*
%TD*%
D14*
%TO.C,R136*%
X234696000Y-72961000D03*
X234696000Y-71311000D03*
%TD*%
%TO.C,R171*%
X183388000Y-105473000D03*
X183388000Y-103823000D03*
%TD*%
D13*
%TO.C,D45*%
X160435000Y-142875000D03*
X158335000Y-142875000D03*
%TD*%
D15*
%TO.C,R35*%
X105155000Y-109135000D03*
X103505000Y-109135000D03*
%TD*%
D13*
%TO.C,D60*%
X183295000Y-131445000D03*
X181195000Y-131445000D03*
%TD*%
D10*
%TO.C,R69*%
X192850000Y-86995000D03*
X194500000Y-86995000D03*
%TD*%
D14*
%TO.C,R193*%
X163576000Y-109029000D03*
X163576000Y-107379000D03*
%TD*%
D17*
%TO.C,C85*%
X172161200Y-62487900D03*
X172161200Y-64562900D03*
%TD*%
D10*
%TO.C,R127*%
X154840000Y-96520000D03*
X156490000Y-96520000D03*
%TD*%
D11*
%TO.C,C78*%
X180747500Y-99695000D03*
X182472500Y-99695000D03*
%TD*%
D15*
%TO.C,R29*%
X91280000Y-78670000D03*
X89630000Y-78670000D03*
%TD*%
D11*
%TO.C,C50*%
X180747500Y-77470000D03*
X182472500Y-77470000D03*
%TD*%
D14*
%TO.C,R185*%
X162052000Y-105473000D03*
X162052000Y-103823000D03*
%TD*%
D10*
%TO.C,R66*%
X163195000Y-31115000D03*
X164845000Y-31115000D03*
%TD*%
D18*
%TO.C,U4*%
X66944400Y-52114999D03*
X66944400Y-51465000D03*
X66944400Y-50815002D03*
X66944400Y-50165001D03*
X66944400Y-49515002D03*
X66944400Y-48865001D03*
X66944400Y-48215002D03*
X66944400Y-47565001D03*
X66944400Y-46915002D03*
X66944400Y-46265001D03*
X66944400Y-45615002D03*
X66944400Y-44965001D03*
X61305600Y-44965001D03*
X61305600Y-45615000D03*
X61305600Y-46265001D03*
X61305600Y-46914999D03*
X61305600Y-47565001D03*
X61305600Y-48214999D03*
X61305600Y-48864998D03*
X61305600Y-49514999D03*
X61305600Y-50164998D03*
X61305600Y-50814999D03*
X61305600Y-51464998D03*
X61305600Y-52114999D03*
%TD*%
D14*
%TO.C,R82*%
X219837000Y-105473000D03*
X219837000Y-103823000D03*
%TD*%
D10*
%TO.C,R20*%
X81535000Y-98960000D03*
X83185000Y-98960000D03*
%TD*%
D11*
%TO.C,C45*%
X157977500Y-93345000D03*
X159702500Y-93345000D03*
%TD*%
D14*
%TO.C,R177*%
X160528000Y-109029000D03*
X160528000Y-107379000D03*
%TD*%
%TO.C,R81*%
X218313000Y-109029000D03*
X218313000Y-107379000D03*
%TD*%
%TO.C,R147*%
X250190000Y-100710000D03*
X250190000Y-99060000D03*
%TD*%
D10*
%TO.C,R48*%
X123255000Y-139955000D03*
X124905000Y-139955000D03*
%TD*%
%TO.C,R116*%
X154840000Y-80645000D03*
X156490000Y-80645000D03*
%TD*%
D11*
%TO.C,C48*%
X165735000Y-77470000D03*
X167460000Y-77470000D03*
%TD*%
D14*
%TO.C,R219*%
X192532000Y-105473000D03*
X192532000Y-103823000D03*
%TD*%
D10*
%TO.C,R112*%
X147575000Y-99695000D03*
X149225000Y-99695000D03*
%TD*%
D14*
%TO.C,R129*%
X155956000Y-105473000D03*
X155956000Y-103823000D03*
%TD*%
%TO.C,R178*%
X172720000Y-109029000D03*
X172720000Y-107379000D03*
%TD*%
D19*
%TO.C,Q1*%
X260770000Y-131130000D03*
X260770000Y-133030000D03*
X262890000Y-132080000D03*
%TD*%
D20*
%TO.C,D29*%
X154745000Y-135255000D03*
X156845000Y-135255000D03*
%TD*%
D12*
%TO.C,D88*%
X100870000Y-136220000D03*
X100870000Y-134120000D03*
%TD*%
D10*
%TO.C,R182*%
X170217500Y-83820000D03*
X171867500Y-83820000D03*
%TD*%
%TO.C,R89*%
X192850000Y-80645000D03*
X194500000Y-80645000D03*
%TD*%
D21*
%TO.C,U19*%
X101822250Y-46944999D03*
X101822250Y-47595000D03*
X101822250Y-48245001D03*
X101822250Y-48895000D03*
X101822250Y-49544999D03*
X101822250Y-50195000D03*
X101822250Y-50844999D03*
X107727750Y-50845001D03*
X107727750Y-50195000D03*
X107727750Y-49545001D03*
X107727750Y-48895000D03*
X107727750Y-48245001D03*
X107727750Y-47595000D03*
X107727750Y-46945001D03*
%TD*%
D10*
%TO.C,R68*%
X192850000Y-83820000D03*
X194500000Y-83820000D03*
%TD*%
D11*
%TO.C,C67*%
X188140000Y-90170000D03*
X189865000Y-90170000D03*
%TD*%
D14*
%TO.C,R114*%
X145288000Y-109029000D03*
X145288000Y-107379000D03*
%TD*%
D10*
%TO.C,R54*%
X95410000Y-129455000D03*
X97060000Y-129455000D03*
%TD*%
D15*
%TO.C,R133*%
X164845000Y-26035000D03*
X163195000Y-26035000D03*
%TD*%
D11*
%TO.C,C55*%
X188140000Y-80645000D03*
X189865000Y-80645000D03*
%TD*%
D15*
%TO.C,R41*%
X119030000Y-119620000D03*
X117380000Y-119620000D03*
%TD*%
D12*
%TO.C,D93*%
X128810000Y-115595000D03*
X128810000Y-113495000D03*
%TD*%
D14*
%TO.C,R113*%
X143764000Y-105473000D03*
X143764000Y-103823000D03*
%TD*%
D12*
%TO.C,D75*%
X100965000Y-85435000D03*
X100965000Y-83335000D03*
%TD*%
D11*
%TO.C,C56*%
X165735000Y-83820000D03*
X167460000Y-83820000D03*
%TD*%
D15*
%TO.C,R47*%
X105060000Y-139910000D03*
X103410000Y-139910000D03*
%TD*%
D11*
%TO.C,C70*%
X180747500Y-93345000D03*
X182472500Y-93345000D03*
%TD*%
%TO.C,C65*%
X173355000Y-90170000D03*
X175080000Y-90170000D03*
%TD*%
D15*
%TO.C,R37*%
X119125000Y-109135000D03*
X117475000Y-109135000D03*
%TD*%
D14*
%TO.C,R211*%
X191008000Y-109029000D03*
X191008000Y-107379000D03*
%TD*%
D20*
%TO.C,D24*%
X154745000Y-123825000D03*
X156845000Y-123825000D03*
%TD*%
D15*
%TO.C,R59*%
X90995000Y-119605000D03*
X89345000Y-119605000D03*
%TD*%
D11*
%TO.C,C79*%
X188140000Y-99695000D03*
X189865000Y-99695000D03*
%TD*%
%TO.C,C28*%
X203227500Y-90170000D03*
X204952500Y-90170000D03*
%TD*%
D14*
%TO.C,R94*%
X227457000Y-109029000D03*
X227457000Y-107379000D03*
%TD*%
%TO.C,R172*%
X195580000Y-105473000D03*
X195580000Y-103823000D03*
%TD*%
%TO.C,R217*%
X168148000Y-105473000D03*
X168148000Y-103823000D03*
%TD*%
%TO.C,R140*%
X246380000Y-62610000D03*
X246380000Y-60960000D03*
%TD*%
D18*
%TO.C,U3*%
X66953800Y-39414999D03*
X66953800Y-38765000D03*
X66953800Y-38115002D03*
X66953800Y-37465001D03*
X66953800Y-36815002D03*
X66953800Y-36165001D03*
X66953800Y-35515002D03*
X66953800Y-34865001D03*
X66953800Y-34215002D03*
X66953800Y-33565001D03*
X66953800Y-32915002D03*
X66953800Y-32265001D03*
X61315000Y-32265001D03*
X61315000Y-32915000D03*
X61315000Y-33565001D03*
X61315000Y-34214999D03*
X61315000Y-34865001D03*
X61315000Y-35514999D03*
X61315000Y-36164998D03*
X61315000Y-36814999D03*
X61315000Y-37464998D03*
X61315000Y-38114999D03*
X61315000Y-38764998D03*
X61315000Y-39414999D03*
%TD*%
D13*
%TO.C,D47*%
X183295000Y-142875000D03*
X181195000Y-142875000D03*
%TD*%
D15*
%TO.C,R39*%
X105155000Y-119535000D03*
X103505000Y-119535000D03*
%TD*%
D11*
%TO.C,C25*%
X203227500Y-83820000D03*
X204952500Y-83820000D03*
%TD*%
D12*
%TO.C,D92*%
X114840000Y-125735000D03*
X114840000Y-123635000D03*
%TD*%
%TO.C,D73*%
X100965000Y-95425000D03*
X100965000Y-93325000D03*
%TD*%
D14*
%TO.C,R188*%
X198628000Y-105473000D03*
X198628000Y-103823000D03*
%TD*%
%TO.C,R105*%
X137668000Y-105473000D03*
X137668000Y-103823000D03*
%TD*%
D20*
%TO.C,D56*%
X200245000Y-127635000D03*
X202345000Y-127635000D03*
%TD*%
D22*
%TO.C,C9*%
X63858900Y-108606450D03*
X61783900Y-108606450D03*
%TD*%
D12*
%TO.C,D70*%
X115095000Y-95510000D03*
X115095000Y-93410000D03*
%TD*%
D10*
%TO.C,R6*%
X109475000Y-78585000D03*
X111125000Y-78585000D03*
%TD*%
%TO.C,R128*%
X154840000Y-99695000D03*
X156490000Y-99695000D03*
%TD*%
D18*
%TO.C,U5*%
X67081400Y-67731449D03*
X67081400Y-67081450D03*
X67081400Y-66431452D03*
X67081400Y-65781451D03*
X67081400Y-65131452D03*
X67081400Y-64481451D03*
X67081400Y-63831452D03*
X67081400Y-63181451D03*
X67081400Y-62531452D03*
X67081400Y-61881451D03*
X67081400Y-61231452D03*
X67081400Y-60581451D03*
X61442600Y-60581451D03*
X61442600Y-61231450D03*
X61442600Y-61881451D03*
X61442600Y-62531449D03*
X61442600Y-63181451D03*
X61442600Y-63831449D03*
X61442600Y-64481448D03*
X61442600Y-65131449D03*
X61442600Y-65781448D03*
X61442600Y-66431449D03*
X61442600Y-67081448D03*
X61442600Y-67731449D03*
%TD*%
D15*
%TO.C,R25*%
X77215000Y-89040000D03*
X75565000Y-89040000D03*
%TD*%
D10*
%TO.C,R197*%
X162597500Y-90170000D03*
X164247500Y-90170000D03*
%TD*%
D14*
%TO.C,R226*%
X181864000Y-109029000D03*
X181864000Y-107379000D03*
%TD*%
%TO.C,R138*%
X246380000Y-54990000D03*
X246380000Y-53340000D03*
%TD*%
D12*
%TO.C,D86*%
X100870000Y-126060000D03*
X100870000Y-123960000D03*
%TD*%
%TO.C,D84*%
X100775000Y-116210000D03*
X100775000Y-114110000D03*
%TD*%
D13*
%TO.C,D31*%
X139480000Y-135255000D03*
X137380000Y-135255000D03*
%TD*%
D10*
%TO.C,R198*%
X170217500Y-90170000D03*
X171867500Y-90170000D03*
%TD*%
D13*
%TO.C,D6*%
X206155000Y-139065000D03*
X204055000Y-139065000D03*
%TD*%
D10*
%TO.C,R36*%
X123445000Y-109135000D03*
X125095000Y-109135000D03*
%TD*%
D11*
%TO.C,C24*%
X203417500Y-80645000D03*
X205142500Y-80645000D03*
%TD*%
D20*
%TO.C,D64*%
X200245000Y-131445000D03*
X202345000Y-131445000D03*
%TD*%
D12*
%TO.C,D83*%
X86900000Y-116125000D03*
X86900000Y-114025000D03*
%TD*%
D14*
%TO.C,R92*%
X225933000Y-105473000D03*
X225933000Y-103823000D03*
%TD*%
%TO.C,R148*%
X246380000Y-100710000D03*
X246380000Y-99060000D03*
%TD*%
D20*
%TO.C,D20*%
X154745000Y-120015000D03*
X156845000Y-120015000D03*
%TD*%
D11*
%TO.C,C13*%
X195987500Y-77470000D03*
X197712500Y-77470000D03*
%TD*%
D15*
%TO.C,R11*%
X119190000Y-98820000D03*
X117540000Y-98820000D03*
%TD*%
D10*
%TO.C,R165*%
X162597500Y-77470000D03*
X164247500Y-77470000D03*
%TD*%
D13*
%TO.C,D19*%
X139480000Y-146685000D03*
X137380000Y-146685000D03*
%TD*%
D20*
%TO.C,D62*%
X177385000Y-131445000D03*
X179485000Y-131445000D03*
%TD*%
D11*
%TO.C,C47*%
X157977500Y-99695000D03*
X159702500Y-99695000D03*
%TD*%
D12*
%TO.C,D67*%
X115000000Y-74780000D03*
X115000000Y-72680000D03*
%TD*%
D23*
%TO.C,C3*%
X179705000Y-25167500D03*
X179705000Y-23092500D03*
%TD*%
D11*
%TO.C,C26*%
X203227500Y-86995000D03*
X204952500Y-86995000D03*
%TD*%
D16*
%TO.C,R130*%
X223520000Y-70930000D03*
X223520000Y-72580000D03*
%TD*%
D12*
%TO.C,D76*%
X86900000Y-85140000D03*
X86900000Y-83040000D03*
%TD*%
D10*
%TO.C,R111*%
X147575000Y-96520000D03*
X149225000Y-96520000D03*
%TD*%
D13*
%TO.C,D8*%
X206155000Y-135255000D03*
X204055000Y-135255000D03*
%TD*%
D20*
%TO.C,D46*%
X177385000Y-123825000D03*
X179485000Y-123825000D03*
%TD*%
%TO.C,D5*%
X221835000Y-139065000D03*
X223935000Y-139065000D03*
%TD*%
D11*
%TO.C,C41*%
X157977500Y-80645000D03*
X159702500Y-80645000D03*
%TD*%
D14*
%TO.C,R155*%
X260451600Y-138188200D03*
X260451600Y-136538200D03*
%TD*%
D13*
%TO.C,D18*%
X139480000Y-120015000D03*
X137380000Y-120015000D03*
%TD*%
D11*
%TO.C,C73*%
X173355000Y-96520000D03*
X175080000Y-96520000D03*
%TD*%
D14*
%TO.C,R151*%
X250190000Y-106870000D03*
X250190000Y-105220000D03*
%TD*%
D12*
%TO.C,D66*%
X128970000Y-64480000D03*
X128970000Y-62380000D03*
%TD*%
D10*
%TO.C,R115*%
X154840000Y-77470000D03*
X156490000Y-77470000D03*
%TD*%
D20*
%TO.C,D40*%
X200245000Y-120015000D03*
X202345000Y-120015000D03*
%TD*%
D12*
%TO.C,D82*%
X100775000Y-105825000D03*
X100775000Y-103725000D03*
%TD*%
%TO.C,D72*%
X115000000Y-85180000D03*
X115000000Y-83080000D03*
%TD*%
D20*
%TO.C,D25*%
X154745000Y-139065000D03*
X156845000Y-139065000D03*
%TD*%
D13*
%TO.C,D30*%
X139480000Y-131445000D03*
X137380000Y-131445000D03*
%TD*%
D10*
%TO.C,R70*%
X192850000Y-90170000D03*
X194500000Y-90170000D03*
%TD*%
D13*
%TO.C,D36*%
X183295000Y-120015000D03*
X181195000Y-120015000D03*
%TD*%
D22*
%TO.C,C5*%
X62251500Y-53848000D03*
X60176500Y-53848000D03*
%TD*%
D14*
%TO.C,R86*%
X222885000Y-105473000D03*
X222885000Y-103823000D03*
%TD*%
D10*
%TO.C,R87*%
X200090000Y-86995000D03*
X201740000Y-86995000D03*
%TD*%
D15*
%TO.C,R23*%
X91185000Y-88955000D03*
X89535000Y-88955000D03*
%TD*%
D13*
%TO.C,D9*%
X206155000Y-120015000D03*
X204055000Y-120015000D03*
%TD*%
D11*
%TO.C,C35*%
X150712500Y-86995000D03*
X152437500Y-86995000D03*
%TD*%
D14*
%TO.C,R145*%
X250190000Y-77850000D03*
X250190000Y-76200000D03*
%TD*%
D11*
%TO.C,C14*%
X195987500Y-83820000D03*
X197712500Y-83820000D03*
%TD*%
D12*
%TO.C,D65*%
X114905000Y-64620000D03*
X114905000Y-62520000D03*
%TD*%
D14*
%TO.C,R146*%
X246380000Y-77850000D03*
X246380000Y-76200000D03*
%TD*%
D11*
%TO.C,C77*%
X173355000Y-99695000D03*
X175080000Y-99695000D03*
%TD*%
D14*
%TO.C,R110*%
X142240000Y-109029000D03*
X142240000Y-107379000D03*
%TD*%
D12*
%TO.C,D80*%
X86995000Y-64945000D03*
X86995000Y-62845000D03*
%TD*%
D17*
%TO.C,C22*%
X231648000Y-71098500D03*
X231648000Y-73173500D03*
%TD*%
D10*
%TO.C,R100*%
X147575000Y-80645000D03*
X149225000Y-80645000D03*
%TD*%
%TO.C,R50*%
X95410000Y-139615000D03*
X97060000Y-139615000D03*
%TD*%
D11*
%TO.C,C68*%
X165735000Y-93345000D03*
X167460000Y-93345000D03*
%TD*%
D14*
%TO.C,R187*%
X186436000Y-105473000D03*
X186436000Y-103823000D03*
%TD*%
D10*
%TO.C,R32*%
X81535000Y-68750000D03*
X83185000Y-68750000D03*
%TD*%
D22*
%TO.C,C4*%
X61997500Y-41275000D03*
X59922500Y-41275000D03*
%TD*%
D14*
%TO.C,R195*%
X187960000Y-109029000D03*
X187960000Y-107379000D03*
%TD*%
D12*
%TO.C,D90*%
X114840000Y-136305000D03*
X114840000Y-134205000D03*
%TD*%
D14*
%TO.C,R131*%
X223520000Y-76390000D03*
X223520000Y-74740000D03*
%TD*%
D17*
%TO.C,C84*%
X182880000Y-62691100D03*
X182880000Y-64766100D03*
%TD*%
D10*
%TO.C,R215*%
X177610000Y-96520000D03*
X179260000Y-96520000D03*
%TD*%
%TO.C,R176*%
X185002500Y-80645000D03*
X186652500Y-80645000D03*
%TD*%
D11*
%TO.C,C69*%
X173355000Y-93345000D03*
X175080000Y-93345000D03*
%TD*%
D13*
%TO.C,D55*%
X183295000Y-139065000D03*
X181195000Y-139065000D03*
%TD*%
%TO.C,D50*%
X160435000Y-127635000D03*
X158335000Y-127635000D03*
%TD*%
D10*
%TO.C,R44*%
X123350000Y-129680000D03*
X125000000Y-129680000D03*
%TD*%
D20*
%TO.C,D17*%
X154745000Y-146685000D03*
X156845000Y-146685000D03*
%TD*%
D13*
%TO.C,D26*%
X139480000Y-127635000D03*
X137380000Y-127635000D03*
%TD*%
D14*
%TO.C,R88*%
X224409000Y-109029000D03*
X224409000Y-107379000D03*
%TD*%
D20*
%TO.C,D57*%
X177385000Y-135255000D03*
X179485000Y-135255000D03*
%TD*%
D10*
%TO.C,R91*%
X200090000Y-90170000D03*
X201740000Y-90170000D03*
%TD*%
D20*
%TO.C,D38*%
X177385000Y-120015000D03*
X179485000Y-120015000D03*
%TD*%
D13*
%TO.C,D34*%
X160435000Y-120015000D03*
X158335000Y-120015000D03*
%TD*%
%TO.C,D15*%
X206155000Y-131445000D03*
X204055000Y-131445000D03*
%TD*%
D10*
%TO.C,R206*%
X170217500Y-93345000D03*
X171867500Y-93345000D03*
%TD*%
%TO.C,R99*%
X147575000Y-77470000D03*
X149225000Y-77470000D03*
%TD*%
D14*
%TO.C,R79*%
X215265000Y-109029000D03*
X215265000Y-107379000D03*
%TD*%
D15*
%TO.C,R57*%
X77120000Y-129370000D03*
X75470000Y-129370000D03*
%TD*%
D14*
%TO.C,R109*%
X140716000Y-105473000D03*
X140716000Y-103823000D03*
%TD*%
D10*
%TO.C,R207*%
X177610000Y-93345000D03*
X179260000Y-93345000D03*
%TD*%
D14*
%TO.C,R159*%
X208788000Y-63549800D03*
X208788000Y-61899800D03*
%TD*%
D15*
%TO.C,R53*%
X77215000Y-139615000D03*
X75565000Y-139615000D03*
%TD*%
D17*
%TO.C,C82*%
X193700400Y-61751300D03*
X193700400Y-63826300D03*
%TD*%
D10*
%TO.C,R214*%
X170217500Y-96520000D03*
X171867500Y-96520000D03*
%TD*%
D11*
%TO.C,C53*%
X173355000Y-80645000D03*
X175080000Y-80645000D03*
%TD*%
D10*
%TO.C,R12*%
X109540000Y-98890000D03*
X111190000Y-98890000D03*
%TD*%
D14*
%TO.C,R150*%
X246380000Y-93090000D03*
X246380000Y-91440000D03*
%TD*%
D11*
%TO.C,C60*%
X165735000Y-86995000D03*
X167460000Y-86995000D03*
%TD*%
D10*
%TO.C,R191*%
X177610000Y-86995000D03*
X179260000Y-86995000D03*
%TD*%
D14*
%TO.C,R180*%
X197104000Y-109029000D03*
X197104000Y-107379000D03*
%TD*%
D10*
%TO.C,R56*%
X81440000Y-129370000D03*
X83090000Y-129370000D03*
%TD*%
D11*
%TO.C,C51*%
X188140000Y-77470000D03*
X189865000Y-77470000D03*
%TD*%
D10*
%TO.C,R205*%
X162597500Y-93345000D03*
X164247500Y-93345000D03*
%TD*%
D14*
%TO.C,R84*%
X221361000Y-109029000D03*
X221361000Y-107379000D03*
%TD*%
D10*
%TO.C,R199*%
X177610000Y-90170000D03*
X179260000Y-90170000D03*
%TD*%
D20*
%TO.C,D14*%
X221835000Y-127635000D03*
X223935000Y-127635000D03*
%TD*%
D14*
%TO.C,R170*%
X171196000Y-105473000D03*
X171196000Y-103823000D03*
%TD*%
D10*
%TO.C,R120*%
X154840000Y-86995000D03*
X156490000Y-86995000D03*
%TD*%
D14*
%TO.C,R157*%
X137160000Y-86740000D03*
X137160000Y-85090000D03*
%TD*%
D15*
%TO.C,R63*%
X90995000Y-109220000D03*
X89345000Y-109220000D03*
%TD*%
D10*
%TO.C,R213*%
X162597500Y-96520000D03*
X164247500Y-96520000D03*
%TD*%
%TO.C,R93*%
X200090000Y-93345000D03*
X201740000Y-93345000D03*
%TD*%
D14*
%TO.C,R139*%
X250190000Y-62610000D03*
X250190000Y-60960000D03*
%TD*%
D16*
%TO.C,R158*%
X158267400Y-61151000D03*
X158267400Y-62801000D03*
%TD*%
D10*
%TO.C,R189*%
X162597500Y-86995000D03*
X164247500Y-86995000D03*
%TD*%
D15*
%TO.C,R51*%
X91090000Y-139615000D03*
X89440000Y-139615000D03*
%TD*%
D11*
%TO.C,C72*%
X165735000Y-96520000D03*
X167460000Y-96520000D03*
%TD*%
D14*
%TO.C,R142*%
X246380000Y-70230000D03*
X246380000Y-68580000D03*
%TD*%
D10*
%TO.C,R42*%
X109380000Y-129540000D03*
X111030000Y-129540000D03*
%TD*%
D14*
%TO.C,R220*%
X204724000Y-105473000D03*
X204724000Y-103823000D03*
%TD*%
D20*
%TO.C,D59*%
X200245000Y-135255000D03*
X202345000Y-135255000D03*
%TD*%
D10*
%TO.C,R30*%
X95600000Y-68580000D03*
X97250000Y-68580000D03*
%TD*%
%TO.C,R107*%
X147575000Y-90170000D03*
X149225000Y-90170000D03*
%TD*%
D11*
%TO.C,C63*%
X188140000Y-86995000D03*
X189865000Y-86995000D03*
%TD*%
D18*
%TO.C,U11*%
X155575000Y-66910001D03*
X155575000Y-67560000D03*
X155575000Y-68209998D03*
X155575000Y-68859999D03*
X155575000Y-69509998D03*
X155575000Y-70159999D03*
X155575000Y-70809998D03*
X155575000Y-71459999D03*
X155575000Y-72109998D03*
X155575000Y-72759999D03*
X155575000Y-73409998D03*
X155575000Y-74059999D03*
X161213800Y-74059999D03*
X161213800Y-73410000D03*
X161213800Y-72759999D03*
X161213800Y-72110001D03*
X161213800Y-71459999D03*
X161213800Y-70810001D03*
X161213800Y-70160002D03*
X161213800Y-69510001D03*
X161213800Y-68860002D03*
X161213800Y-68210001D03*
X161213800Y-67560002D03*
X161213800Y-66910001D03*
%TD*%
D20*
%TO.C,D21*%
X154745000Y-142875000D03*
X156845000Y-142875000D03*
%TD*%
%TO.C,D10*%
X221835000Y-120015000D03*
X223935000Y-120015000D03*
%TD*%
D14*
%TO.C,R121*%
X149860000Y-105473000D03*
X149860000Y-103823000D03*
%TD*%
D18*
%TO.C,U12*%
X166531800Y-66910001D03*
X166531800Y-67560000D03*
X166531800Y-68209998D03*
X166531800Y-68859999D03*
X166531800Y-69509998D03*
X166531800Y-70159999D03*
X166531800Y-70809998D03*
X166531800Y-71459999D03*
X166531800Y-72109998D03*
X166531800Y-72759999D03*
X166531800Y-73409998D03*
X166531800Y-74059999D03*
X172170600Y-74059999D03*
X172170600Y-73410000D03*
X172170600Y-72759999D03*
X172170600Y-72110001D03*
X172170600Y-71459999D03*
X172170600Y-70810001D03*
X172170600Y-70160002D03*
X172170600Y-69510001D03*
X172170600Y-68860002D03*
X172170600Y-68210001D03*
X172170600Y-67560002D03*
X172170600Y-66910001D03*
%TD*%
D23*
%TO.C,C2*%
X233172000Y-118893500D03*
X233172000Y-116818500D03*
%TD*%
D15*
%TO.C,R33*%
X77215000Y-68750000D03*
X75565000Y-68750000D03*
%TD*%
D13*
%TO.C,D39*%
X183295000Y-146685000D03*
X181195000Y-146685000D03*
%TD*%
%TO.C,D58*%
X160435000Y-131445000D03*
X158335000Y-131445000D03*
%TD*%
D10*
%TO.C,R38*%
X109475000Y-119535000D03*
X111125000Y-119535000D03*
%TD*%
%TO.C,R119*%
X154840000Y-83820000D03*
X156490000Y-83820000D03*
%TD*%
D12*
%TO.C,D85*%
X86900000Y-125975000D03*
X86900000Y-123875000D03*
%TD*%
D10*
%TO.C,R95*%
X200090000Y-96520000D03*
X201740000Y-96520000D03*
%TD*%
D18*
%TO.C,U2*%
X88544400Y-48024999D03*
X88544400Y-47375000D03*
X88544400Y-46725002D03*
X88544400Y-46075001D03*
X88544400Y-45425002D03*
X88544400Y-44775001D03*
X88544400Y-44125002D03*
X88544400Y-43475001D03*
X88544400Y-42825002D03*
X88544400Y-42175001D03*
X88544400Y-41525002D03*
X88544400Y-40875001D03*
X82905600Y-40875001D03*
X82905600Y-41525000D03*
X82905600Y-42175001D03*
X82905600Y-42824999D03*
X82905600Y-43475001D03*
X82905600Y-44124999D03*
X82905600Y-44774998D03*
X82905600Y-45424999D03*
X82905600Y-46074998D03*
X82905600Y-46724999D03*
X82905600Y-47374998D03*
X82905600Y-48024999D03*
%TD*%
D13*
%TO.C,D13*%
X206155000Y-127635000D03*
X204055000Y-127635000D03*
%TD*%
D10*
%TO.C,R83*%
X200280000Y-80645000D03*
X201930000Y-80645000D03*
%TD*%
D14*
%TO.C,R98*%
X230505000Y-109029000D03*
X230505000Y-107379000D03*
%TD*%
D15*
%TO.C,R132*%
X99060000Y-46990000D03*
X97410000Y-46990000D03*
%TD*%
D24*
%TO.C,U30*%
X210058000Y-53162200D03*
X208788000Y-53162200D03*
X207518000Y-53162200D03*
X206248000Y-53162200D03*
X204978000Y-53162200D03*
X203708000Y-53162200D03*
X202438000Y-53162200D03*
X202438000Y-58089800D03*
X203708000Y-58089800D03*
X204978000Y-58089800D03*
X206248000Y-58089800D03*
X207518000Y-58089800D03*
X208788000Y-58089800D03*
X210058000Y-58089800D03*
%TD*%
D14*
%TO.C,R186*%
X174244000Y-105473000D03*
X174244000Y-103823000D03*
%TD*%
D13*
%TO.C,D63*%
X183295000Y-135255000D03*
X181195000Y-135255000D03*
%TD*%
D18*
%TO.C,U10*%
X66910800Y-131231449D03*
X66910800Y-130581450D03*
X66910800Y-129931452D03*
X66910800Y-129281451D03*
X66910800Y-128631452D03*
X66910800Y-127981451D03*
X66910800Y-127331452D03*
X66910800Y-126681451D03*
X66910800Y-126031452D03*
X66910800Y-125381451D03*
X66910800Y-124731452D03*
X66910800Y-124081451D03*
X61272000Y-124081451D03*
X61272000Y-124731450D03*
X61272000Y-125381451D03*
X61272000Y-126031449D03*
X61272000Y-126681451D03*
X61272000Y-127331449D03*
X61272000Y-127981448D03*
X61272000Y-128631449D03*
X61272000Y-129281448D03*
X61272000Y-129931449D03*
X61272000Y-130581448D03*
X61272000Y-131231449D03*
%TD*%
D10*
%TO.C,R224*%
X185002500Y-99695000D03*
X186652500Y-99695000D03*
%TD*%
%TO.C,R2*%
X108905000Y-68580000D03*
X110555000Y-68580000D03*
%TD*%
D18*
%TO.C,U6*%
X66910800Y-80431449D03*
X66910800Y-79781450D03*
X66910800Y-79131452D03*
X66910800Y-78481451D03*
X66910800Y-77831452D03*
X66910800Y-77181451D03*
X66910800Y-76531452D03*
X66910800Y-75881451D03*
X66910800Y-75231452D03*
X66910800Y-74581451D03*
X66910800Y-73931452D03*
X66910800Y-73281451D03*
X61272000Y-73281451D03*
X61272000Y-73931450D03*
X61272000Y-74581451D03*
X61272000Y-75231449D03*
X61272000Y-75881451D03*
X61272000Y-76531449D03*
X61272000Y-77181448D03*
X61272000Y-77831449D03*
X61272000Y-78481448D03*
X61272000Y-79131449D03*
X61272000Y-79781448D03*
X61272000Y-80431449D03*
%TD*%
D10*
%TO.C,R184*%
X185002500Y-83820000D03*
X186652500Y-83820000D03*
%TD*%
D11*
%TO.C,C33*%
X150712500Y-80645000D03*
X152437500Y-80645000D03*
%TD*%
D15*
%TO.C,R7*%
X105155000Y-78585000D03*
X103505000Y-78585000D03*
%TD*%
D11*
%TO.C,C16*%
X195987500Y-90170000D03*
X197712500Y-90170000D03*
%TD*%
D10*
%TO.C,R103*%
X147575000Y-83820000D03*
X149225000Y-83820000D03*
%TD*%
D14*
%TO.C,R164*%
X252628400Y-118427000D03*
X252628400Y-116777000D03*
%TD*%
D10*
%TO.C,R62*%
X95315000Y-109220000D03*
X96965000Y-109220000D03*
%TD*%
%TO.C,R24*%
X81535000Y-89040000D03*
X83185000Y-89040000D03*
%TD*%
%TO.C,R52*%
X81535000Y-139615000D03*
X83185000Y-139615000D03*
%TD*%
D14*
%TO.C,R194*%
X175768000Y-109029000D03*
X175768000Y-107379000D03*
%TD*%
%TO.C,R126*%
X154432000Y-109029000D03*
X154432000Y-107379000D03*
%TD*%
D10*
%TO.C,R108*%
X147575000Y-93345000D03*
X149225000Y-93345000D03*
%TD*%
%TO.C,R223*%
X177610000Y-99695000D03*
X179260000Y-99695000D03*
%TD*%
D20*
%TO.C,D35*%
X200245000Y-146685000D03*
X202345000Y-146685000D03*
%TD*%
D10*
%TO.C,R173*%
X162597500Y-80645000D03*
X164247500Y-80645000D03*
%TD*%
D14*
%TO.C,R101*%
X134620000Y-105473000D03*
X134620000Y-103823000D03*
%TD*%
D10*
%TO.C,R8*%
X123510000Y-78515000D03*
X125160000Y-78515000D03*
%TD*%
D11*
%TO.C,C17*%
X195987500Y-93345000D03*
X197712500Y-93345000D03*
%TD*%
D14*
%TO.C,R227*%
X194056000Y-109029000D03*
X194056000Y-107379000D03*
%TD*%
D11*
%TO.C,C40*%
X157977500Y-77470000D03*
X159702500Y-77470000D03*
%TD*%
%TO.C,C27*%
X195987500Y-80645000D03*
X197712500Y-80645000D03*
%TD*%
%TO.C,C39*%
X150712500Y-99695000D03*
X152437500Y-99695000D03*
%TD*%
D15*
%TO.C,R49*%
X118935000Y-139955000D03*
X117285000Y-139955000D03*
%TD*%
D14*
%TO.C,R143*%
X250190000Y-85470000D03*
X250190000Y-83820000D03*
%TD*%
D17*
%TO.C,C12*%
X243840000Y-128275000D03*
X243840000Y-130350000D03*
%TD*%
D10*
%TO.C,R22*%
X95505000Y-88955000D03*
X97155000Y-88955000D03*
%TD*%
%TO.C,R166*%
X170217500Y-77470000D03*
X171867500Y-77470000D03*
%TD*%
%TO.C,R230*%
X235204000Y-118618000D03*
X236854000Y-118618000D03*
%TD*%
D12*
%TO.C,D68*%
X128970000Y-74865000D03*
X128970000Y-72765000D03*
%TD*%
D14*
%TO.C,R149*%
X250190000Y-93090000D03*
X250190000Y-91440000D03*
%TD*%
D20*
%TO.C,D16*%
X221835000Y-131445000D03*
X223935000Y-131445000D03*
%TD*%
D14*
%TO.C,R196*%
X200152000Y-109029000D03*
X200152000Y-107379000D03*
%TD*%
D11*
%TO.C,C75*%
X188140000Y-96520000D03*
X189865000Y-96520000D03*
%TD*%
D14*
%TO.C,R117*%
X146812000Y-105473000D03*
X146812000Y-103823000D03*
%TD*%
D15*
%TO.C,R17*%
X105275000Y-88815000D03*
X103625000Y-88815000D03*
%TD*%
D10*
%TO.C,R181*%
X162597500Y-83820000D03*
X164247500Y-83820000D03*
%TD*%
D11*
%TO.C,C76*%
X165735000Y-99695000D03*
X167460000Y-99695000D03*
%TD*%
D22*
%TO.C,C10*%
X62200700Y-120243600D03*
X60125700Y-120243600D03*
%TD*%
D10*
%TO.C,R168*%
X185002500Y-77470000D03*
X186652500Y-77470000D03*
%TD*%
%TO.C,R85*%
X200090000Y-83820000D03*
X201740000Y-83820000D03*
%TD*%
%TO.C,R221*%
X162597500Y-99695000D03*
X164247500Y-99695000D03*
%TD*%
D11*
%TO.C,C58*%
X180747500Y-83820000D03*
X182472500Y-83820000D03*
%TD*%
D20*
%TO.C,D51*%
X200245000Y-139065000D03*
X202345000Y-139065000D03*
%TD*%
D13*
%TO.C,D61*%
X160435000Y-135255000D03*
X158335000Y-135255000D03*
%TD*%
D18*
%TO.C,U21*%
X240055400Y-69106999D03*
X240055400Y-68457000D03*
X240055400Y-67807002D03*
X240055400Y-67157001D03*
X240055400Y-66507002D03*
X240055400Y-65857001D03*
X240055400Y-65207002D03*
X240055400Y-64557001D03*
X240055400Y-63907002D03*
X240055400Y-63257001D03*
X240055400Y-62607002D03*
X240055400Y-61957001D03*
X234416600Y-61957001D03*
X234416600Y-62607000D03*
X234416600Y-63257001D03*
X234416600Y-63906999D03*
X234416600Y-64557001D03*
X234416600Y-65206999D03*
X234416600Y-65856998D03*
X234416600Y-66506999D03*
X234416600Y-67156998D03*
X234416600Y-67806999D03*
X234416600Y-68456998D03*
X234416600Y-69106999D03*
%TD*%
%TO.C,U23*%
X188036200Y-66910001D03*
X188036200Y-67560000D03*
X188036200Y-68209998D03*
X188036200Y-68859999D03*
X188036200Y-69509998D03*
X188036200Y-70159999D03*
X188036200Y-70809998D03*
X188036200Y-71459999D03*
X188036200Y-72109998D03*
X188036200Y-72759999D03*
X188036200Y-73409998D03*
X188036200Y-74059999D03*
X193675000Y-74059999D03*
X193675000Y-73410000D03*
X193675000Y-72759999D03*
X193675000Y-72110001D03*
X193675000Y-71459999D03*
X193675000Y-70810001D03*
X193675000Y-70160002D03*
X193675000Y-69510001D03*
X193675000Y-68860002D03*
X193675000Y-68210001D03*
X193675000Y-67560002D03*
X193675000Y-66910001D03*
%TD*%
D11*
%TO.C,C59*%
X188140000Y-83820000D03*
X189865000Y-83820000D03*
%TD*%
D10*
%TO.C,R58*%
X95315000Y-119605000D03*
X96965000Y-119605000D03*
%TD*%
D23*
%TO.C,C1*%
X133350000Y-35962500D03*
X133350000Y-33887500D03*
%TD*%
D20*
%TO.C,D41*%
X177385000Y-142875000D03*
X179485000Y-142875000D03*
%TD*%
D11*
%TO.C,C18*%
X196177500Y-96520000D03*
X197902500Y-96520000D03*
%TD*%
D10*
%TO.C,R156*%
X253175000Y-41910000D03*
X254825000Y-41910000D03*
%TD*%
D11*
%TO.C,C57*%
X173355000Y-83820000D03*
X175080000Y-83820000D03*
%TD*%
D22*
%TO.C,C11*%
X63858900Y-134006450D03*
X61783900Y-134006450D03*
%TD*%
D14*
%TO.C,R76*%
X210693000Y-105473000D03*
X210693000Y-103823000D03*
%TD*%
D15*
%TO.C,R19*%
X91185000Y-98820000D03*
X89535000Y-98820000D03*
%TD*%
D13*
%TO.C,D42*%
X160435000Y-123825000D03*
X158335000Y-123825000D03*
%TD*%
D15*
%TO.C,R55*%
X91090000Y-129455000D03*
X89440000Y-129455000D03*
%TD*%
D10*
%TO.C,R60*%
X81440000Y-119520000D03*
X83090000Y-119520000D03*
%TD*%
D15*
%TO.C,R9*%
X119190000Y-78515000D03*
X117540000Y-78515000D03*
%TD*%
D10*
%TO.C,R46*%
X109380000Y-139910000D03*
X111030000Y-139910000D03*
%TD*%
D20*
%TO.C,D49*%
X177385000Y-139065000D03*
X179485000Y-139065000D03*
%TD*%
D14*
%TO.C,R135*%
X256540000Y-132905000D03*
X256540000Y-131255000D03*
%TD*%
D11*
%TO.C,C32*%
X150712500Y-77470000D03*
X152437500Y-77470000D03*
%TD*%
D14*
%TO.C,R202*%
X177292000Y-105473000D03*
X177292000Y-103823000D03*
%TD*%
%TO.C,R218*%
X180340000Y-105473000D03*
X180340000Y-103823000D03*
%TD*%
D11*
%TO.C,C74*%
X180747500Y-96520000D03*
X182472500Y-96520000D03*
%TD*%
%TO.C,C49*%
X173355000Y-77470000D03*
X175080000Y-77470000D03*
%TD*%
D14*
%TO.C,R96*%
X228981000Y-105473000D03*
X228981000Y-103823000D03*
%TD*%
D10*
%TO.C,R175*%
X177610000Y-80645000D03*
X179260000Y-80645000D03*
%TD*%
D16*
%TO.C,R134*%
X265430000Y-130430000D03*
X265430000Y-132080000D03*
%TD*%
D14*
%TO.C,R106*%
X139192000Y-109029000D03*
X139192000Y-107379000D03*
%TD*%
D20*
%TO.C,D1*%
X221835000Y-146685000D03*
X223935000Y-146685000D03*
%TD*%
D10*
%TO.C,R190*%
X170217500Y-86995000D03*
X171867500Y-86995000D03*
%TD*%
D14*
%TO.C,R203*%
X189484000Y-105473000D03*
X189484000Y-103823000D03*
%TD*%
D15*
%TO.C,R27*%
X77310000Y-78585000D03*
X75660000Y-78585000D03*
%TD*%
D22*
%TO.C,C20*%
X85150600Y-50800000D03*
X83075600Y-50800000D03*
%TD*%
D14*
%TO.C,R141*%
X250190000Y-70230000D03*
X250190000Y-68580000D03*
%TD*%
D11*
%TO.C,C23*%
X203417500Y-77470000D03*
X205142500Y-77470000D03*
%TD*%
D14*
%TO.C,R90*%
X209169000Y-109029000D03*
X209169000Y-107379000D03*
%TD*%
%TO.C,R169*%
X159004000Y-105473000D03*
X159004000Y-103823000D03*
%TD*%
D12*
%TO.C,D91*%
X128810000Y-126065000D03*
X128810000Y-123965000D03*
%TD*%
D10*
%TO.C,R216*%
X185002500Y-96520000D03*
X186652500Y-96520000D03*
%TD*%
D12*
%TO.C,D69*%
X129065000Y-95425000D03*
X129065000Y-93325000D03*
%TD*%
D14*
%TO.C,R78*%
X213741000Y-105474000D03*
X213741000Y-103824000D03*
%TD*%
D11*
%TO.C,C36*%
X150712500Y-90170000D03*
X152437500Y-90170000D03*
%TD*%
%TO.C,C37*%
X150712500Y-93345000D03*
X152437500Y-93345000D03*
%TD*%
D15*
%TO.C,R13*%
X105220000Y-98890000D03*
X103570000Y-98890000D03*
%TD*%
D13*
%TO.C,D52*%
X183295000Y-127635000D03*
X181195000Y-127635000D03*
%TD*%
D14*
%TO.C,R102*%
X136144000Y-109029000D03*
X136144000Y-107379000D03*
%TD*%
D12*
%TO.C,D77*%
X87090000Y-75190000D03*
X87090000Y-73090000D03*
%TD*%
D10*
%TO.C,R72*%
X193040000Y-96520000D03*
X194690000Y-96520000D03*
%TD*%
D14*
%TO.C,R228*%
X206248000Y-109029000D03*
X206248000Y-107379000D03*
%TD*%
%TO.C,R122*%
X151384000Y-109029000D03*
X151384000Y-107379000D03*
%TD*%
D22*
%TO.C,C8*%
X63800900Y-95732600D03*
X61725900Y-95732600D03*
%TD*%
D13*
%TO.C,D27*%
X139480000Y-139065000D03*
X137380000Y-139065000D03*
%TD*%
D14*
%TO.C,R212*%
X203200000Y-109029000D03*
X203200000Y-107379000D03*
%TD*%
D16*
%TO.C,R162*%
X206248000Y-47549800D03*
X206248000Y-49199800D03*
%TD*%
D10*
%TO.C,R10*%
X123510000Y-98820000D03*
X125160000Y-98820000D03*
%TD*%
D12*
%TO.C,D78*%
X101060000Y-75190000D03*
X101060000Y-73090000D03*
%TD*%
D11*
%TO.C,C64*%
X165735000Y-90170000D03*
X167460000Y-90170000D03*
%TD*%
D14*
%TO.C,R179*%
X184912000Y-109029000D03*
X184912000Y-107379000D03*
%TD*%
D10*
%TO.C,R18*%
X95505000Y-98820000D03*
X97155000Y-98820000D03*
%TD*%
%TO.C,R40*%
X123350000Y-119620000D03*
X125000000Y-119620000D03*
%TD*%
D14*
%TO.C,R152*%
X246380000Y-106870000D03*
X246380000Y-105220000D03*
%TD*%
D16*
%TO.C,R229*%
X128905000Y-34100000D03*
X128905000Y-35750000D03*
%TD*%
D14*
%TO.C,R125*%
X152908000Y-105473000D03*
X152908000Y-103823000D03*
%TD*%
D11*
%TO.C,C31*%
X203227500Y-99695000D03*
X204952500Y-99695000D03*
%TD*%
D18*
%TO.C,U13*%
X177241200Y-66910001D03*
X177241200Y-67560000D03*
X177241200Y-68209998D03*
X177241200Y-68859999D03*
X177241200Y-69509998D03*
X177241200Y-70159999D03*
X177241200Y-70809998D03*
X177241200Y-71459999D03*
X177241200Y-72109998D03*
X177241200Y-72759999D03*
X177241200Y-73409998D03*
X177241200Y-74059999D03*
X182880000Y-74059999D03*
X182880000Y-73410000D03*
X182880000Y-72759999D03*
X182880000Y-72110001D03*
X182880000Y-71459999D03*
X182880000Y-70810001D03*
X182880000Y-70160002D03*
X182880000Y-69510001D03*
X182880000Y-68860002D03*
X182880000Y-68210001D03*
X182880000Y-67560002D03*
X182880000Y-66910001D03*
%TD*%
D11*
%TO.C,C38*%
X150712500Y-96520000D03*
X152437500Y-96520000D03*
%TD*%
D10*
%TO.C,R222*%
X170217500Y-99695000D03*
X171867500Y-99695000D03*
%TD*%
D14*
%TO.C,R163*%
X157480000Y-109029000D03*
X157480000Y-107379000D03*
%TD*%
D20*
%TO.C,D33*%
X177385000Y-146685000D03*
X179485000Y-146685000D03*
%TD*%
D14*
%TO.C,R209*%
X166624000Y-109029000D03*
X166624000Y-107379000D03*
%TD*%
D11*
%TO.C,C62*%
X180747500Y-86995000D03*
X182472500Y-86995000D03*
%TD*%
D15*
%TO.C,R43*%
X105060000Y-129540000D03*
X103410000Y-129540000D03*
%TD*%
D10*
%TO.C,R123*%
X154840000Y-90170000D03*
X156490000Y-90170000D03*
%TD*%
D12*
%TO.C,D74*%
X86995000Y-95235000D03*
X86995000Y-93135000D03*
%TD*%
D14*
%TO.C,R80*%
X216789000Y-105473000D03*
X216789000Y-103823000D03*
%TD*%
D15*
%TO.C,R21*%
X77215000Y-98960000D03*
X75565000Y-98960000D03*
%TD*%
D18*
%TO.C,U8*%
X66900800Y-105831449D03*
X66900800Y-105181450D03*
X66900800Y-104531452D03*
X66900800Y-103881451D03*
X66900800Y-103231452D03*
X66900800Y-102581451D03*
X66900800Y-101931452D03*
X66900800Y-101281451D03*
X66900800Y-100631452D03*
X66900800Y-99981451D03*
X66900800Y-99331452D03*
X66900800Y-98681451D03*
X61262000Y-98681451D03*
X61262000Y-99331450D03*
X61262000Y-99981451D03*
X61262000Y-100631449D03*
X61262000Y-101281451D03*
X61262000Y-101931449D03*
X61262000Y-102581448D03*
X61262000Y-103231449D03*
X61262000Y-103881448D03*
X61262000Y-104531449D03*
X61262000Y-105181448D03*
X61262000Y-105831449D03*
%TD*%
D10*
%TO.C,R167*%
X177610000Y-77470000D03*
X179260000Y-77470000D03*
%TD*%
D12*
%TO.C,D79*%
X101060000Y-64945000D03*
X101060000Y-62845000D03*
%TD*%
D10*
%TO.C,R200*%
X185002500Y-90170000D03*
X186652500Y-90170000D03*
%TD*%
D20*
%TO.C,D7*%
X221835000Y-135255000D03*
X223935000Y-135255000D03*
%TD*%
%TO.C,D54*%
X177385000Y-127635000D03*
X179485000Y-127635000D03*
%TD*%
D13*
%TO.C,D22*%
X139480000Y-123825000D03*
X137380000Y-123825000D03*
%TD*%
D10*
%TO.C,R26*%
X81630000Y-78585000D03*
X83280000Y-78585000D03*
%TD*%
D25*
%TO.C,C7*%
X56976100Y-78587600D03*
X59051100Y-78587600D03*
%TD*%
D13*
%TO.C,D44*%
X183295000Y-123825000D03*
X181195000Y-123825000D03*
%TD*%
D26*
%TO.C,U1*%
X183345000Y-23708400D03*
X183345000Y-24978400D03*
X183345000Y-26248400D03*
X183345000Y-27518400D03*
X183345000Y-28788400D03*
X183345000Y-30058400D03*
X183345000Y-31328400D03*
X183345000Y-32598400D03*
X183345000Y-33868400D03*
X183345000Y-35138400D03*
X183345000Y-36408400D03*
X183345000Y-37678400D03*
X183345000Y-38948400D03*
X183345000Y-40218400D03*
D27*
X185110000Y-41468400D03*
X186380000Y-41468400D03*
X187650000Y-41468400D03*
X188920000Y-41468400D03*
X190190000Y-41468400D03*
X191460000Y-41468400D03*
X192730000Y-41468400D03*
X194000000Y-41468400D03*
X195270000Y-41468400D03*
X196540000Y-41468400D03*
X197810000Y-41468400D03*
X199080000Y-41468400D03*
D26*
X200845000Y-40218400D03*
X200845000Y-38948400D03*
X200845000Y-37678400D03*
X200845000Y-36408400D03*
X200845000Y-35138400D03*
X200845000Y-33868400D03*
X200845000Y-32598400D03*
X200845000Y-31328400D03*
X200845000Y-30058400D03*
X200845000Y-28788400D03*
X200845000Y-27518400D03*
X200845000Y-26248400D03*
X200845000Y-24978400D03*
X200845000Y-23708400D03*
D28*
X190595000Y-31428400D03*
X190595000Y-30028400D03*
X189195000Y-30028400D03*
X189195000Y-31428400D03*
X189195000Y-32828400D03*
X190595000Y-32828400D03*
X191995000Y-32828400D03*
X191995000Y-31428400D03*
X191995000Y-30028400D03*
%TD*%
D12*
%TO.C,D94*%
X114935000Y-115900000D03*
X114935000Y-113800000D03*
%TD*%
D18*
%TO.C,U9*%
X66900800Y-118531449D03*
X66900800Y-117881450D03*
X66900800Y-117231452D03*
X66900800Y-116581451D03*
X66900800Y-115931452D03*
X66900800Y-115281451D03*
X66900800Y-114631452D03*
X66900800Y-113981451D03*
X66900800Y-113331452D03*
X66900800Y-112681451D03*
X66900800Y-112031452D03*
X66900800Y-111381451D03*
X61262000Y-111381451D03*
X61262000Y-112031450D03*
X61262000Y-112681451D03*
X61262000Y-113331449D03*
X61262000Y-113981451D03*
X61262000Y-114631449D03*
X61262000Y-115281448D03*
X61262000Y-115931449D03*
X61262000Y-116581448D03*
X61262000Y-117231449D03*
X61262000Y-117881448D03*
X61262000Y-118531449D03*
%TD*%
D11*
%TO.C,C52*%
X165735000Y-80645000D03*
X167460000Y-80645000D03*
%TD*%
D15*
%TO.C,R5*%
X119125000Y-68495000D03*
X117475000Y-68495000D03*
%TD*%
D20*
%TO.C,D43*%
X200245000Y-142875000D03*
X202345000Y-142875000D03*
%TD*%
D29*
%TO.C,J110*%
X260042400Y-29681000D03*
X259642400Y-30781000D03*
X260042400Y-31881000D03*
X260242400Y-32981000D03*
X260042400Y-34081000D03*
X260242400Y-35181000D03*
X260042400Y-36281000D03*
X260042400Y-37381000D03*
D30*
X249492400Y-36571000D03*
X249492400Y-30871000D03*
D31*
X262642400Y-38171000D03*
X263642400Y-25021000D03*
%TD*%
D15*
%TO.C,R61*%
X77120000Y-119520000D03*
X75470000Y-119520000D03*
%TD*%
D14*
%TO.C,R204*%
X201676000Y-105473000D03*
X201676000Y-103823000D03*
%TD*%
D12*
%TO.C,D96*%
X114935000Y-105740000D03*
X114935000Y-103640000D03*
%TD*%
D23*
%TO.C,C81*%
X213004400Y-62835700D03*
X213004400Y-60760700D03*
%TD*%
D10*
%TO.C,R192*%
X185002500Y-86995000D03*
X186652500Y-86995000D03*
%TD*%
D11*
%TO.C,C61*%
X173355000Y-86995000D03*
X175080000Y-86995000D03*
%TD*%
D10*
%TO.C,R124*%
X154840000Y-93345000D03*
X156490000Y-93345000D03*
%TD*%
D14*
%TO.C,R75*%
X207772000Y-105473000D03*
X207772000Y-103823000D03*
%TD*%
D16*
%TO.C,R153*%
X40640000Y-32830000D03*
X40640000Y-34480000D03*
%TD*%
D12*
%TO.C,D95*%
X128905000Y-105655000D03*
X128905000Y-103555000D03*
%TD*%
D11*
%TO.C,C29*%
X203227500Y-93345000D03*
X204952500Y-93345000D03*
%TD*%
D14*
%TO.C,R144*%
X246380000Y-85470000D03*
X246380000Y-83820000D03*
%TD*%
%TO.C,R118*%
X148336000Y-109029000D03*
X148336000Y-107379000D03*
%TD*%
D10*
%TO.C,R208*%
X185002500Y-93345000D03*
X186652500Y-93345000D03*
%TD*%
%TO.C,R174*%
X170217500Y-80645000D03*
X171867500Y-80645000D03*
%TD*%
D11*
%TO.C,C42*%
X157977500Y-83820000D03*
X159702500Y-83820000D03*
%TD*%
D20*
%TO.C,D28*%
X154745000Y-127635000D03*
X156845000Y-127635000D03*
%TD*%
D18*
%TO.C,U7*%
X66920200Y-93131449D03*
X66920200Y-92481450D03*
X66920200Y-91831452D03*
X66920200Y-91181451D03*
X66920200Y-90531452D03*
X66920200Y-89881451D03*
X66920200Y-89231452D03*
X66920200Y-88581451D03*
X66920200Y-87931452D03*
X66920200Y-87281451D03*
X66920200Y-86631452D03*
X66920200Y-85981451D03*
X61281400Y-85981451D03*
X61281400Y-86631450D03*
X61281400Y-87281451D03*
X61281400Y-87931449D03*
X61281400Y-88581451D03*
X61281400Y-89231449D03*
X61281400Y-89881448D03*
X61281400Y-90531449D03*
X61281400Y-91181448D03*
X61281400Y-91831449D03*
X61281400Y-92481448D03*
X61281400Y-93131449D03*
%TD*%
D20*
%TO.C,D48*%
X200245000Y-123825000D03*
X202345000Y-123825000D03*
%TD*%
D11*
%TO.C,C54*%
X180747500Y-80645000D03*
X182472500Y-80645000D03*
%TD*%
D10*
%TO.C,R154*%
X55880000Y-148590000D03*
X57530000Y-148590000D03*
%TD*%
D11*
%TO.C,C15*%
X195987500Y-86995000D03*
X197712500Y-86995000D03*
%TD*%
D10*
%TO.C,R97*%
X200090000Y-99695000D03*
X201740000Y-99695000D03*
%TD*%
%TO.C,R67*%
X192850000Y-77470000D03*
X194500000Y-77470000D03*
%TD*%
D20*
%TO.C,D12*%
X221835000Y-123825000D03*
X223935000Y-123825000D03*
%TD*%
D13*
%TO.C,D23*%
X139480000Y-142875000D03*
X137380000Y-142875000D03*
%TD*%
D15*
%TO.C,R65*%
X77025000Y-109560000D03*
X75375000Y-109560000D03*
%TD*%
D11*
%TO.C,C30*%
X203227500Y-96520000D03*
X204952500Y-96520000D03*
%TD*%
D10*
%TO.C,R104*%
X147575000Y-86995000D03*
X149225000Y-86995000D03*
%TD*%
D25*
%TO.C,C21*%
X108817500Y-44450000D03*
X110892500Y-44450000D03*
%TD*%
D20*
%TO.C,D32*%
X154745000Y-131445000D03*
X156845000Y-131445000D03*
%TD*%
D14*
%TO.C,R137*%
X250190000Y-54990000D03*
X250190000Y-53340000D03*
%TD*%
%TO.C,R210*%
X178816000Y-109029000D03*
X178816000Y-107379000D03*
%TD*%
D13*
%TO.C,D11*%
X206155000Y-123825000D03*
X204055000Y-123825000D03*
%TD*%
D11*
%TO.C,C71*%
X188140000Y-93345000D03*
X189865000Y-93345000D03*
%TD*%
D10*
%TO.C,R14*%
X123605000Y-88745000D03*
X125255000Y-88745000D03*
%TD*%
D11*
%TO.C,C43*%
X157977500Y-86995000D03*
X159702500Y-86995000D03*
%TD*%
D15*
%TO.C,R15*%
X119285000Y-88745000D03*
X117635000Y-88745000D03*
%TD*%
D14*
%TO.C,R225*%
X169672000Y-109029000D03*
X169672000Y-107379000D03*
%TD*%
%TO.C,R77*%
X212217000Y-109029000D03*
X212217000Y-107379000D03*
%TD*%
D13*
%TO.C,D2*%
X206155000Y-146685000D03*
X204055000Y-146685000D03*
%TD*%
D11*
%TO.C,C46*%
X157977500Y-96520000D03*
X159702500Y-96520000D03*
%TD*%
D15*
%TO.C,R45*%
X119030000Y-129680000D03*
X117380000Y-129680000D03*
%TD*%
%TO.C,R31*%
X91280000Y-68580000D03*
X89630000Y-68580000D03*
%TD*%
D13*
%TO.C,D4*%
X206155000Y-142875000D03*
X204055000Y-142875000D03*
%TD*%
D20*
%TO.C,D3*%
X221835000Y-142875000D03*
X223935000Y-142875000D03*
%TD*%
D22*
%TO.C,C6*%
X63521500Y-70485000D03*
X61446500Y-70485000D03*
%TD*%
D10*
%TO.C,R73*%
X193040000Y-99695000D03*
X194690000Y-99695000D03*
%TD*%
%TO.C,R71*%
X192850000Y-93345000D03*
X194500000Y-93345000D03*
%TD*%
%TO.C,R28*%
X95600000Y-78670000D03*
X97250000Y-78670000D03*
%TD*%
D12*
%TO.C,D71*%
X129160000Y-85350000D03*
X129160000Y-83250000D03*
%TD*%
D10*
%TO.C,R1*%
X77810600Y-41910000D03*
X79460600Y-41910000D03*
%TD*%
D11*
%TO.C,C44*%
X157977500Y-90170000D03*
X159702500Y-90170000D03*
%TD*%
D10*
%TO.C,R183*%
X177610000Y-83820000D03*
X179260000Y-83820000D03*
%TD*%
M02*
